<svg id="svg" version="1.1" xmlns="http://www.w3.org/2000/svg" xmlns:xlink="http://www.w3.org/1999/xlink" width="400" height="430.7692307692308" viewBox="0, 0, 400,430.7692307692308"><g id="svgg"><path id="path0" d="M171.515 0.455 C 171.413 0.761,170.082 0.884,167.452 0.831 C 163.723 0.756,162.400 1.075,162.400 2.049 C 162.400 2.717,171.596 2.475,171.855 1.800 C 172.038 1.324,172.885 1.199,175.943 1.197 C 180.514 1.192,184.000 0.824,184.000 0.344 C 184.000 -0.199,171.697 -0.090,171.515 0.455 M216.800 0.356 C 216.800 0.697,225.030 1.450,226.509 1.245 C 226.918 1.188,227.172 1.369,227.109 1.673 C 227.025 2.079,228.034 2.226,231.500 2.313 C 233.975 2.375,236.000 2.317,236.000 2.185 C 236.000 1.236,234.622 0.800,231.629 0.800 C 229.743 0.800,228.400 0.634,228.400 0.400 C 228.400 0.152,226.200 0.000,222.600 0.000 C 219.410 0.000,216.800 0.160,216.800 0.356 M156.880 2.880 C 155.971 3.789,156.408 4.000,159.200 4.000 C 161.733 4.000,162.000 3.924,162.000 3.200 C 162.000 2.261,157.764 1.996,156.880 2.880 M238.112 3.170 C 238.054 3.937,238.262 4.000,240.854 4.000 C 243.288 4.000,243.641 3.909,243.527 3.314 C 243.306 2.168,238.198 2.032,238.112 3.170 M150.200 4.400 C 149.692 5.223,150.517 5.600,152.824 5.600 C 154.933 5.600,155.200 5.510,155.200 4.800 C 155.200 3.916,150.721 3.558,150.200 4.400 M244.800 4.862 C 244.800 5.504,245.139 5.600,247.400 5.600 C 248.830 5.600,249.997 5.465,249.994 5.300 C 249.963 3.796,244.800 3.360,244.800 4.862 M146.700 5.487 C 145.937 5.602,145.600 5.890,145.600 6.427 C 145.600 7.420,147.122 7.479,147.483 6.500 C 147.625 6.115,147.935 5.668,148.171 5.506 C 148.417 5.338,148.429 5.235,148.200 5.266 C 147.980 5.296,147.305 5.395,146.700 5.487 M251.097 6.173 C 251.279 7.124,251.452 7.200,253.447 7.200 C 256.693 7.200,256.092 6.006,252.550 5.420 C 250.943 5.154,250.906 5.173,251.097 6.173 M140.334 7.103 C 138.609 7.472,139.237 8.400,141.213 8.400 C 142.873 8.400,143.200 8.279,143.200 7.667 C 143.200 6.943,142.096 6.726,140.334 7.103 M256.000 7.641 C 256.000 8.461,257.478 8.884,259.161 8.548 C 261.431 8.094,260.159 6.852,257.500 6.927 C 256.378 6.958,256.000 7.138,256.000 7.641 M134.981 8.752 C 134.325 9.409,134.957 10.000,136.315 10.000 C 137.482 10.000,137.842 9.836,137.884 9.286 C 137.934 8.618,135.553 8.180,134.981 8.752 M261.805 9.132 C 261.537 9.830,262.246 10.388,263.400 10.388 C 264.576 10.388,265.351 9.770,265.075 9.052 C 264.757 8.223,262.129 8.287,261.805 9.132 M130.500 10.587 C 129.733 11.476,129.871 11.600,131.629 11.600 C 132.965 11.600,133.235 11.474,133.126 10.900 C 132.958 10.016,131.176 9.804,130.500 10.587 M265.878 10.777 C 266.130 11.740,266.599 11.886,268.575 11.615 C 270.013 11.419,270.095 11.345,269.514 10.767 C 268.521 9.780,265.619 9.788,265.878 10.777 M127.169 11.700 C 126.818 12.847,126.964 13.200,127.789 13.200 C 128.370 13.200,128.783 12.907,128.916 12.400 C 129.087 11.744,127.367 11.054,127.169 11.700 M270.800 12.400 C 270.800 13.081,271.067 13.200,272.600 13.200 C 274.133 13.200,274.400 13.319,274.400 14.000 C 274.400 14.670,274.667 14.800,276.037 14.800 C 277.338 14.800,277.718 14.964,277.884 15.600 C 278.049 16.231,278.430 16.400,279.689 16.400 C 280.898 16.400,281.233 16.537,281.069 16.963 C 280.808 17.643,282.545 18.183,283.419 17.693 C 283.927 17.409,283.931 17.258,283.447 16.597 C 282.948 15.914,282.807 15.894,282.167 16.415 C 281.732 16.768,281.566 16.802,281.747 16.500 C 281.932 16.192,281.825 16.000,281.466 16.000 C 281.147 16.000,280.782 15.730,280.655 15.400 C 280.513 15.029,279.904 14.800,279.059 14.800 C 278.030 14.800,277.642 14.603,277.484 14.000 C 277.325 13.391,276.938 13.200,275.864 13.200 C 274.805 13.200,274.391 13.001,274.200 12.400 C 274.003 11.779,273.595 11.600,272.373 11.600 C 271.067 11.600,270.800 11.736,270.800 12.400 M122.400 14.025 C 122.400 14.662,122.684 14.800,124.000 14.800 C 125.300 14.800,125.600 14.659,125.600 14.047 C 125.600 13.439,125.292 13.290,124.000 13.272 C 122.676 13.254,122.400 13.384,122.400 14.025 M119.275 15.500 C 119.477 16.561,121.200 16.676,121.200 15.628 C 121.200 15.005,120.945 14.800,120.171 14.800 C 119.406 14.800,119.176 14.980,119.275 15.500 M116.451 16.509 C 115.742 17.218,115.918 17.600,116.953 17.600 C 118.089 17.600,118.693 16.192,117.593 16.109 C 117.213 16.081,116.699 16.261,116.451 16.509 M285.149 18.261 C 284.550 18.984,284.754 19.153,286.373 19.277 C 287.129 19.334,287.896 19.685,288.148 20.089 C 288.748 21.049,290.000 21.012,290.000 20.035 C 290.000 19.456,289.756 19.297,288.995 19.381 C 288.272 19.460,288.019 19.317,288.095 18.870 C 288.242 18.002,285.786 17.494,285.149 18.261 M112.177 18.438 C 111.914 18.864,111.930 18.874,113.100 18.996 C 113.595 19.048,114.000 18.956,114.000 18.792 C 114.000 18.333,112.430 18.027,112.177 18.438 M110.213 19.579 C 109.861 20.148,110.310 20.800,111.053 20.800 C 111.403 20.800,111.604 20.519,111.529 20.133 C 111.374 19.330,110.575 18.993,110.213 19.579 M106.000 21.201 C 105.670 21.414,105.557 21.591,105.749 21.594 C 105.941 21.597,105.867 21.878,105.585 22.218 C 105.303 22.558,104.831 22.744,104.536 22.631 C 104.200 22.502,104.000 22.719,104.000 23.213 C 104.000 23.733,104.271 24.000,104.800 24.000 C 105.333 24.000,105.600 23.733,105.600 23.200 C 105.600 22.557,105.867 22.400,106.963 22.400 C 108.182 22.400,108.299 22.305,108.079 21.500 C 107.869 20.733,107.810 20.707,107.681 21.329 C 107.547 21.976,107.478 21.988,107.065 21.436 C 106.737 20.998,106.424 20.929,106.000 21.201 M291.200 21.509 C 291.200 22.071,292.798 22.826,293.327 22.513 C 293.507 22.406,293.753 22.698,293.874 23.160 C 294.174 24.308,296.000 24.342,296.000 23.200 C 296.000 22.616,295.733 22.400,295.013 22.400 C 294.254 22.400,294.085 22.245,294.282 21.731 C 294.479 21.218,294.378 21.123,293.849 21.326 C 293.469 21.472,293.255 21.434,293.374 21.242 C 293.492 21.051,293.052 20.916,292.395 20.943 C 291.710 20.971,291.200 21.212,291.200 21.509 M101.067 24.267 C 100.516 24.817,100.829 25.600,101.600 25.600 C 102.133 25.600,102.400 25.333,102.400 24.800 C 102.400 24.029,101.617 23.716,101.067 24.267 M297.600 24.771 C 297.600 25.321,297.858 25.600,298.365 25.600 C 299.316 25.600,299.226 24.259,298.262 24.071 C 297.817 23.984,297.600 24.213,297.600 24.771 M98.432 25.638 C 97.749 25.911,97.589 26.149,97.890 26.450 C 98.499 27.059,99.767 26.714,99.925 25.895 C 100.074 25.118,99.835 25.077,98.432 25.638 M299.766 25.655 C 299.356 26.318,300.501 27.274,301.481 27.087 C 302.158 26.957,302.382 27.078,302.305 27.531 C 302.238 27.927,302.659 28.287,303.466 28.524 C 304.188 28.736,304.820 29.234,304.938 29.683 C 305.217 30.752,306.563 30.454,306.729 29.286 C 306.800 28.788,306.710 28.406,306.529 28.438 C 305.688 28.583,305.200 28.349,305.200 27.800 C 305.200 27.470,304.840 27.177,304.400 27.150 C 302.890 27.056,302.734 26.999,302.268 26.369 C 301.694 25.595,300.086 25.137,299.766 25.655 M95.541 27.092 C 95.179 27.175,94.790 27.594,94.678 28.023 C 94.558 28.481,94.247 28.716,93.923 28.592 C 93.575 28.458,93.349 28.680,93.311 29.190 C 93.269 29.746,93.493 30.000,94.025 30.000 C 94.533 30.000,94.800 29.725,94.800 29.200 C 94.800 28.760,94.935 28.421,95.100 28.447 C 95.851 28.566,96.332 28.354,96.540 27.813 C 96.803 27.126,96.463 26.880,95.541 27.092 M90.369 30.185 C 90.353 30.193,90.278 30.515,90.205 30.900 C 90.016 31.884,91.450 31.816,91.709 30.828 C 91.874 30.197,91.105 29.827,90.369 30.185 M308.080 30.480 C 307.366 31.194,307.496 31.600,308.437 31.600 C 308.924 31.600,309.358 31.919,309.474 32.360 C 309.593 32.815,310.116 33.185,310.778 33.282 C 312.200 33.491,312.009 32.118,310.566 31.756 C 310.049 31.626,309.642 31.403,309.661 31.260 C 309.827 29.987,308.988 29.572,308.080 30.480 M88.677 32.428 C 88.529 32.991,88.681 33.200,89.237 33.200 C 90.118 33.200,90.272 32.190,89.439 31.870 C 89.106 31.743,88.797 31.968,88.677 32.428 M85.698 34.067 C 85.521 34.746,85.087 34.980,84.269 34.837 C 83.601 34.720,84.231 36.195,84.905 36.325 C 85.385 36.417,85.600 36.202,85.600 35.629 C 85.600 35.067,85.857 34.800,86.400 34.800 C 86.909 34.800,87.200 34.533,87.200 34.067 C 87.200 33.654,86.913 33.333,86.545 33.333 C 86.185 33.333,85.804 33.663,85.698 34.067 M312.093 34.000 C 311.629 34.743,311.693 34.800,312.997 34.800 C 314.133 34.800,314.400 34.648,314.400 34.000 C 314.400 33.436,314.133 33.200,313.496 33.200 C 312.999 33.200,312.368 33.560,312.093 34.000 M314.308 35.025 C 313.841 35.492,314.478 36.400,315.272 36.400 C 315.804 36.400,316.015 36.175,315.925 35.705 C 315.788 34.996,314.767 34.567,314.308 35.025 M317.200 36.788 C 317.200 37.347,317.505 37.755,318.023 37.890 C 318.475 38.008,318.758 38.333,318.651 38.611 C 318.529 38.930,318.892 39.181,319.628 39.289 C 320.273 39.384,320.800 39.327,320.800 39.163 C 320.800 38.340,320.271 37.675,319.769 37.867 C 319.426 37.999,319.057 37.715,318.828 37.142 C 318.620 36.624,318.439 36.357,318.425 36.549 C 318.411 36.741,318.130 36.674,317.800 36.400 C 317.297 35.983,317.200 36.046,317.200 36.788 M80.204 38.006 C 80.445 38.396,80.346 38.465,79.832 38.268 C 79.367 38.089,79.189 38.167,79.300 38.500 C 79.546 39.240,80.800 39.368,80.800 38.653 C 80.800 38.320,80.592 37.919,80.338 37.762 C 80.031 37.572,79.986 37.654,80.204 38.006 M320.784 39.819 C 320.298 40.405,320.290 40.398,322.155 40.970 C 322.530 41.085,322.647 40.900,322.515 40.398 C 322.256 39.407,321.371 39.111,320.784 39.819 M323.200 41.724 C 323.200 42.044,323.570 42.404,324.023 42.522 C 324.637 42.683,324.814 42.568,324.719 42.073 C 324.558 41.236,323.200 40.924,323.200 41.724 M73.060 43.600 C 72.928 44.260,72.625 44.800,72.386 44.800 C 72.148 44.800,72.064 44.620,72.200 44.400 C 72.336 44.180,72.257 44.000,72.024 44.000 C 71.791 44.000,71.600 44.371,71.600 44.824 C 71.600 45.344,71.430 45.542,71.138 45.362 C 70.874 45.198,70.784 45.251,70.929 45.485 C 71.359 46.181,73.200 45.589,73.200 44.753 C 73.200 44.267,73.483 44.000,74.000 44.000 C 74.533 44.000,74.800 43.733,74.800 43.200 C 74.800 41.855,73.342 42.191,73.060 43.600 M325.200 43.265 C 325.200 43.806,325.423 44.016,325.900 43.924 C 326.285 43.850,326.600 43.539,326.600 43.233 C 326.600 42.927,326.285 42.630,325.900 42.574 C 325.434 42.505,325.200 42.736,325.200 43.265 M326.544 44.598 C 326.685 44.965,326.800 45.341,326.800 45.433 C 326.800 45.525,327.173 45.600,327.629 45.600 C 328.807 45.600,328.462 44.238,327.240 44.065 C 326.489 43.958,326.342 44.071,326.544 44.598 M328.683 45.451 C 328.073 46.061,328.410 47.200,329.200 47.200 C 329.644 47.200,330.000 47.467,330.000 47.800 C 330.000 48.133,330.356 48.400,330.800 48.400 C 331.240 48.400,331.600 48.320,331.600 48.222 C 331.600 47.744,328.928 45.206,328.683 45.451 M62.924 52.199 C 62.401 52.765,62.637 53.200,63.467 53.200 C 64.030 53.200,64.210 52.174,63.700 51.866 C 63.535 51.766,63.186 51.916,62.924 52.199 M335.891 52.428 C 336.016 52.903,336.372 53.187,336.752 53.114 C 337.702 52.931,337.543 51.901,336.540 51.748 C 335.847 51.643,335.721 51.776,335.891 52.428 M61.200 54.000 C 60.883 54.440,60.412 54.800,60.154 54.800 C 59.619 54.800,59.134 55.801,59.494 56.161 C 60.027 56.694,60.752 56.346,60.872 55.500 C 60.958 54.899,61.233 54.639,61.700 54.718 C 62.177 54.798,62.400 54.574,62.400 54.018 C 62.400 52.981,61.939 52.974,61.200 54.000 M337.863 53.470 C 337.718 53.615,337.600 53.973,337.600 54.267 C 337.600 54.863,338.631 54.997,338.972 54.445 C 339.244 54.005,338.225 53.108,337.863 53.470 M339.213 55.500 C 339.206 55.995,339.404 56.400,339.653 56.400 C 340.242 56.400,343.600 59.758,343.600 60.347 C 343.600 60.596,343.930 60.800,344.333 60.800 C 344.737 60.800,345.067 60.540,345.067 60.222 C 345.067 59.904,344.962 59.656,344.833 59.670 C 344.027 59.757,343.600 59.522,343.600 58.990 C 343.600 58.655,343.150 58.209,342.600 58.000 C 342.050 57.791,341.600 57.345,341.600 57.010 C 341.600 56.674,341.444 56.445,341.253 56.500 C 341.062 56.555,340.528 56.150,340.066 55.600 L 339.227 54.600 339.213 55.500 M58.000 57.000 C 58.000 57.330,58.270 57.600,58.600 57.600 C 58.930 57.600,59.200 57.330,59.200 57.000 C 59.200 56.670,58.930 56.400,58.600 56.400 C 58.270 56.400,58.000 56.670,58.000 57.000 M57.000 57.906 C 56.351 58.383,56.351 59.200,57.000 59.200 C 57.333 59.200,57.600 58.844,57.600 58.400 C 57.600 57.511,57.571 57.487,57.000 57.906 M55.200 59.609 C 54.870 59.817,54.780 59.991,55.000 59.994 C 55.220 59.998,54.908 60.424,54.307 60.941 C 53.232 61.866,53.217 62.400,54.267 62.400 C 54.560 62.400,54.800 62.053,54.800 61.628 C 54.800 61.187,55.120 60.801,55.545 60.728 C 56.056 60.640,56.213 60.385,56.045 59.915 C 55.867 59.418,55.634 59.334,55.200 59.609 M345.200 61.767 C 345.200 62.115,345.485 62.400,345.833 62.400 C 346.540 62.400,346.417 61.539,345.675 61.292 C 345.414 61.205,345.200 61.418,345.200 61.767 M350.579 67.566 C 350.703 67.767,350.579 68.019,350.302 68.125 C 350.026 68.231,350.185 68.300,350.656 68.277 C 351.486 68.238,351.561 67.200,350.734 67.200 C 350.524 67.200,350.455 67.365,350.579 67.566 M351.839 68.694 C 351.375 69.158,351.608 70.000,352.200 70.000 C 352.749 70.000,352.983 70.488,352.838 71.329 C 352.806 71.510,353.190 71.600,353.690 71.529 C 354.786 71.374,354.802 70.749,353.723 70.197 C 353.290 69.975,353.003 69.592,353.085 69.346 C 353.249 68.852,352.220 68.314,351.839 68.694 M44.000 72.024 C 44.000 72.257,44.225 72.316,44.500 72.155 C 44.775 71.994,44.661 72.249,44.247 72.722 C 43.832 73.194,43.356 73.496,43.188 73.393 C 43.021 73.289,42.786 73.459,42.667 73.769 C 42.548 74.080,42.724 74.439,43.058 74.567 C 43.948 74.908,44.000 74.877,44.000 74.000 C 44.000 73.467,44.267 73.200,44.800 73.200 C 45.333 73.200,45.600 72.933,45.600 72.400 C 45.600 71.867,45.333 71.600,44.800 71.600 C 44.360 71.600,44.000 71.791,44.000 72.024 M354.667 71.867 C 354.116 72.417,354.429 73.200,355.200 73.200 C 355.778 73.200,356.000 73.467,356.000 74.163 C 356.000 74.899,356.172 75.080,356.733 74.933 C 357.137 74.828,357.467 74.487,357.467 74.177 C 357.467 73.866,357.137 73.507,356.733 73.379 C 356.066 73.167,355.825 72.710,355.953 71.900 C 356.011 71.528,355.030 71.503,354.667 71.867 M359.286 78.531 C 359.359 79.009,359.655 79.350,359.944 79.289 C 360.233 79.227,360.561 79.530,360.674 79.961 C 360.980 81.133,362.088 81.431,361.928 80.298 C 361.857 79.804,361.530 79.396,361.200 79.391 C 360.870 79.386,360.648 79.093,360.706 78.739 C 360.768 78.370,360.460 78.004,359.983 77.880 C 359.307 77.703,359.177 77.824,359.286 78.531 M37.800 80.400 C 37.936 80.620,38.307 80.800,38.624 80.800 C 38.941 80.800,39.200 80.620,39.200 80.400 C 39.200 80.180,38.829 80.000,38.376 80.000 C 37.923 80.000,37.664 80.180,37.800 80.400 M362.400 83.200 C 362.400 84.084,362.698 84.183,363.600 83.600 C 364.036 83.318,364.057 83.211,363.676 83.206 C 363.388 83.203,363.264 83.020,363.400 82.800 C 363.536 82.580,363.367 82.400,363.024 82.400 C 362.667 82.400,362.400 82.742,362.400 83.200 M34.890 84.454 C 34.950 84.738,34.595 85.155,34.100 85.380 C 32.945 85.906,32.860 87.214,34.000 86.916 C 34.440 86.801,34.800 86.470,34.800 86.180 C 34.800 85.891,35.170 85.537,35.622 85.393 C 36.074 85.250,36.374 84.922,36.289 84.666 C 36.071 84.013,34.753 83.813,34.890 84.454 M363.600 84.800 C 363.600 85.333,363.867 85.600,364.400 85.600 C 364.987 85.600,365.200 85.867,365.200 86.600 C 365.200 87.150,365.275 87.600,365.367 87.600 C 365.459 87.600,365.781 87.694,366.081 87.810 C 367.092 88.198,366.779 86.462,365.614 85.215 C 364.300 83.808,363.600 83.664,363.600 84.800 M31.600 89.039 C 31.600 89.504,31.768 89.538,32.400 89.200 C 32.840 88.965,33.200 88.726,33.200 88.671 C 33.200 88.616,32.840 88.543,32.400 88.510 C 31.935 88.475,31.600 88.696,31.600 89.039 M367.067 88.667 C 366.563 89.170,366.800 90.400,367.400 90.400 C 367.730 90.400,368.014 90.265,368.031 90.100 C 368.047 89.935,368.122 89.485,368.195 89.100 C 368.326 88.416,367.597 88.136,367.067 88.667 M30.200 90.333 C 29.707 90.826,30.073 91.600,30.800 91.600 C 31.309 91.600,31.600 91.333,31.600 90.867 C 31.600 90.199,30.684 89.850,30.200 90.333 M368.369 90.100 C 368.013 91.265,368.162 91.600,369.035 91.600 C 369.566 91.600,370.000 91.420,370.000 91.200 C 370.000 90.980,369.809 90.800,369.576 90.800 C 369.343 90.800,369.264 90.620,369.400 90.400 C 369.536 90.180,369.367 90.000,369.024 90.000 C 368.681 90.000,368.386 90.045,368.369 90.100 M28.406 93.585 C 28.423 94.193,29.167 94.868,29.555 94.628 C 30.301 94.167,30.052 93.246,29.200 93.310 C 28.760 93.343,28.403 93.467,28.406 93.585 M370.000 94.600 C 370.000 95.370,370.184 96.000,370.410 96.000 C 370.635 96.000,370.991 96.450,371.200 97.000 C 371.639 98.156,373.102 98.399,373.004 97.300 C 372.899 96.127,372.366 94.800,372.000 94.800 C 371.810 94.800,371.540 94.440,371.400 94.000 C 370.964 92.625,370.000 93.039,370.000 94.600 M27.310 95.600 C 27.282 95.967,27.516 96.267,27.830 96.267 C 28.143 96.267,28.400 95.967,28.400 95.600 C 28.400 95.233,28.166 94.933,27.880 94.933 C 27.594 94.933,27.338 95.233,27.310 95.600 M25.600 98.533 C 25.600 99.336,25.756 99.484,26.419 99.311 C 27.397 99.055,27.307 97.870,26.295 97.675 C 25.786 97.577,25.600 97.806,25.600 98.533 M373.242 98.149 C 372.666 98.843,373.040 99.865,373.957 100.105 C 374.583 100.268,374.797 99.419,374.386 98.400 C 374.342 98.290,374.327 98.065,374.353 97.900 C 374.431 97.404,373.730 97.562,373.242 98.149 M25.200 100.800 C 25.200 101.020,24.986 101.155,24.724 101.100 C 24.462 101.045,24.179 101.315,24.094 101.700 C 23.987 102.191,24.189 102.400,24.771 102.400 C 25.389 102.400,25.600 102.145,25.600 101.400 C 25.600 100.850,25.510 100.400,25.400 100.400 C 25.290 100.400,25.200 100.580,25.200 100.800 M374.534 101.427 C 374.246 102.179,374.954 103.000,375.565 102.622 C 376.224 102.214,376.087 100.800,375.387 100.800 C 375.051 100.800,374.667 101.082,374.534 101.427 M22.812 103.984 C 22.488 104.189,22.351 104.485,22.508 104.641 C 22.885 105.018,22.011 106.054,21.555 105.772 C 21.360 105.651,21.186 105.698,21.169 105.876 C 21.153 106.054,21.076 106.529,21.000 106.931 C 20.903 107.445,21.040 107.593,21.464 107.431 C 21.795 107.304,22.141 107.200,22.233 107.200 C 22.325 107.200,22.400 106.823,22.400 106.363 C 22.400 105.862,22.721 105.441,23.200 105.316 C 23.643 105.200,24.000 104.770,24.000 104.353 C 24.000 103.520,23.695 103.425,22.812 103.984 M376.000 104.600 C 376.000 105.333,376.213 105.600,376.800 105.600 C 377.443 105.600,377.600 105.867,377.600 106.957 C 377.600 108.216,378.372 109.095,378.961 108.506 C 379.556 107.910,379.170 106.044,378.400 105.800 C 377.960 105.660,377.600 105.217,377.600 104.816 C 377.600 104.414,377.315 103.976,376.967 103.843 C 376.034 103.485,376.000 103.511,376.000 104.600 M20.187 108.711 C 19.959 108.870,19.787 109.270,19.805 109.600 C 19.849 110.443,18.785 112.038,18.356 111.773 C 18.160 111.652,18.000 111.729,18.000 111.944 C 18.000 112.159,17.896 112.606,17.768 112.938 C 17.594 113.391,17.744 113.487,18.368 113.324 C 18.826 113.205,19.200 112.792,19.200 112.407 C 19.200 112.023,19.573 111.233,20.029 110.654 C 20.856 109.603,20.972 108.160,20.187 108.711 M379.200 109.967 C 379.200 110.718,379.473 111.511,379.817 111.763 C 380.157 112.012,380.491 112.751,380.560 113.407 C 380.650 114.270,380.922 114.635,381.543 114.728 C 383.035 114.950,382.432 112.145,380.859 111.546 C 380.029 111.231,379.942 111.083,380.414 110.790 C 380.907 110.484,380.857 110.283,380.100 109.524 L 379.200 108.622 379.200 109.967 M245.321 112.050 C 231.490 113.501,219.445 123.540,214.124 138.052 L 212.603 142.200 212.401 166.680 C 212.253 184.714,212.076 191.285,211.728 191.632 C 211.164 192.196,190.291 192.868,188.934 192.366 L 188.068 192.046 187.897 167.323 C 187.714 140.894,187.794 141.932,185.539 136.600 C 175.848 113.681,148.914 105.181,129.000 118.757 C 125.333 121.257,123.239 123.078,121.539 125.249 C 120.613 126.432,119.752 127.490,119.626 127.600 C 119.420 127.781,118.165 129.709,116.894 131.800 C 115.319 134.389,114.367 136.645,113.347 140.200 L 112.200 144.200 112.250 199.800 C 112.285 237.910,112.436 255.966,112.731 257.200 C 114.131 263.062,117.044 269.763,118.984 271.585 C 119.543 272.110,120.000 272.764,120.000 273.038 C 120.000 274.576,128.288 281.624,132.364 283.552 C 133.707 284.187,135.029 284.892,135.303 285.118 C 135.576 285.344,136.520 285.658,137.400 285.817 C 138.280 285.976,139.335 286.278,139.744 286.490 C 146.188 289.825,164.560 287.056,170.800 281.809 C 171.130 281.531,171.619 281.236,171.887 281.152 C 173.899 280.523,181.644 271.741,183.486 268.000 C 184.412 266.119,184.542 265.803,186.507 260.600 L 187.715 257.400 187.899 233.482 L 188.082 209.564 189.101 208.897 C 190.061 208.268,207.210 207.500,210.859 207.923 C 212.410 208.102,212.387 207.743,212.412 232.400 C 212.425 244.830,212.593 255.720,212.787 256.600 C 215.013 266.723,219.622 274.213,227.187 280.000 C 227.906 280.550,228.979 281.392,229.572 281.872 C 230.900 282.947,237.160 285.992,238.051 285.997 C 238.409 285.998,239.367 286.278,240.180 286.617 C 242.746 287.689,251.024 288.569,253.800 288.065 C 255.120 287.825,257.010 287.511,258.000 287.367 C 258.990 287.223,260.286 286.857,260.880 286.553 C 261.474 286.249,262.254 286.000,262.612 286.000 C 263.803 286.000,270.563 282.538,273.068 280.646 C 281.212 274.491,286.058 266.400,288.004 255.705 C 289.074 249.827,289.233 149.955,288.182 143.897 C 287.384 139.298,285.915 134.862,284.374 132.400 C 284.167 132.070,283.822 131.393,283.607 130.895 C 282.815 129.061,277.560 122.464,275.907 121.227 C 271.345 117.814,270.004 116.921,267.984 115.949 C 259.798 112.007,254.468 111.091,245.321 112.050 M16.283 115.899 C 16.092 116.900,16.498 117.578,17.300 117.594 C 17.465 117.597,17.600 116.970,17.600 116.200 C 17.600 114.494,16.596 114.264,16.283 115.899 M382.400 116.953 C 382.400 118.050,383.858 118.732,383.879 117.645 C 383.893 116.907,383.271 116.000,382.751 116.000 C 382.558 116.000,382.400 116.429,382.400 116.953 M15.232 118.739 C 14.586 119.947,14.709 120.800,15.530 120.800 C 16.085 120.800,16.246 120.515,16.203 119.607 C 16.131 118.054,15.771 117.732,15.232 118.739 M383.760 120.062 C 383.788 120.939,384.014 121.355,384.500 121.426 C 385.326 121.548,385.481 120.041,384.720 119.280 C 383.956 118.516,383.717 118.710,383.760 120.062 M13.329 123.040 C 13.077 123.698,13.911 124.502,14.481 124.150 C 14.656 124.042,14.800 123.603,14.800 123.176 C 14.800 122.240,13.676 122.137,13.329 123.040 M385.200 123.971 C 385.200 125.333,385.331 125.600,386.000 125.600 C 386.681 125.600,386.800 125.867,386.800 127.400 C 386.800 129.322,386.803 129.327,387.767 128.957 C 388.746 128.582,388.631 125.727,387.624 125.408 C 387.111 125.245,386.806 124.728,386.724 123.884 C 386.523 121.809,385.200 121.885,385.200 123.971 M11.867 125.867 C 11.260 126.473,11.579 128.894,12.233 128.643 C 12.581 128.509,12.941 128.400,13.033 128.400 C 13.125 128.400,13.200 127.770,13.200 127.000 C 13.200 125.682,12.579 125.154,11.867 125.867 M156.344 128.409 C 157.303 128.844,158.282 129.200,158.520 129.200 C 161.070 129.200,168.151 135.815,170.039 139.961 C 172.466 145.290,172.400 144.456,172.400 169.996 C 172.400 196.998,172.828 194.528,168.000 195.381 C 163.233 196.223,158.284 197.375,155.000 198.406 C 153.460 198.890,151.300 199.535,150.200 199.840 C 149.100 200.146,147.660 200.656,147.000 200.974 C 146.340 201.292,144.720 201.951,143.400 202.439 C 140.732 203.426,134.931 206.239,134.000 206.997 C 132.631 208.113,128.313 210.393,127.970 210.181 C 127.748 210.044,127.600 197.217,127.600 178.197 L 127.600 146.441 128.586 143.321 C 130.765 136.426,135.494 131.493,142.518 128.789 C 146.338 127.319,153.507 127.122,156.344 128.409 M256.460 128.551 C 261.194 129.853,264.779 132.279,268.310 136.568 C 271.949 140.990,273.652 151.187,272.468 161.478 C 271.460 170.244,265.556 176.855,253.774 182.412 C 251.456 183.506,249.273 184.400,248.924 184.400 C 248.574 184.400,247.548 184.735,246.644 185.144 C 242.495 187.023,234.025 189.234,230.600 189.332 L 228.200 189.400 228.096 168.271 C 227.981 144.744,227.991 144.637,230.670 139.526 C 232.022 136.947,235.590 132.833,237.546 131.598 C 238.067 131.269,238.877 130.718,239.346 130.373 C 240.144 129.788,243.999 128.298,245.800 127.879 C 248.150 127.332,253.185 127.649,256.460 128.551 M10.243 130.633 C 9.799 131.790,9.991 132.400,10.800 132.400 C 11.422 132.400,11.600 132.133,11.600 131.200 C 11.600 129.907,10.671 129.518,10.243 130.633 M388.479 131.729 C 388.568 132.952,388.790 133.429,389.316 133.529 C 389.928 133.645,390.015 133.416,389.914 131.970 C 389.825 130.699,389.616 130.249,389.076 130.170 C 388.467 130.081,388.376 130.318,388.479 131.729 M8.941 134.726 C 8.263 135.168,8.471 136.325,9.267 136.533 C 9.824 136.679,10.000 136.500,10.000 135.786 C 10.000 134.738,9.576 134.313,8.941 134.726 M390.000 136.012 C 390.000 137.664,390.334 138.135,391.148 137.632 C 391.902 137.166,391.522 134.694,390.678 134.570 C 390.141 134.491,390.000 134.791,390.000 136.012 M7.326 139.700 C 7.150 139.975,6.996 140.611,6.984 141.114 C 6.949 142.589,8.178 142.024,8.325 140.497 C 8.451 139.192,7.923 138.771,7.326 139.700 M391.600 140.980 C 391.600 142.108,391.810 142.878,392.172 143.080 C 392.497 143.262,392.800 144.166,392.872 145.169 C 392.942 146.142,393.225 147.012,393.500 147.102 C 394.178 147.325,394.827 145.548,394.305 144.900 C 394.083 144.625,394.054 144.400,394.240 144.400 C 394.426 144.400,394.194 144.131,393.724 143.802 C 393.125 143.382,392.910 142.875,393.004 142.102 C 393.195 140.531,392.806 139.200,392.157 139.200 C 391.765 139.200,391.600 139.726,391.600 140.980 M5.676 145.497 C 5.825 147.291,7.200 147.982,7.200 146.262 C 7.200 144.838,6.805 144.000,6.133 144.000 C 5.706 144.000,5.585 144.397,5.676 145.497 M4.469 149.957 C 3.949 150.279,3.987 153.479,4.508 153.300 C 4.669 153.245,4.980 153.200,5.200 153.200 C 5.672 153.200,5.746 150.138,5.281 149.850 C 5.105 149.742,4.740 149.790,4.469 149.957 M394.636 152.600 C 394.284 154.000,394.743 155.597,395.421 155.336 C 396.144 155.059,396.117 151.600,395.393 151.600 C 395.114 151.600,394.774 152.050,394.636 152.600 M2.649 156.616 C 2.093 158.064,2.366 160.065,3.100 159.924 C 3.640 159.820,3.800 159.387,3.800 158.028 C 3.800 156.254,3.112 155.410,2.649 156.616 M396.000 158.753 C 396.000 161.170,396.098 161.532,396.800 161.716 C 397.716 161.955,398.002 158.298,397.186 156.774 C 396.407 155.319,396.000 155.999,396.000 158.753 M1.220 163.163 C 0.406 164.683,0.684 168.800,1.600 168.800 C 2.328 168.800,2.400 168.533,2.400 165.824 C 2.400 162.768,1.961 161.778,1.220 163.163 M397.600 167.695 C 397.600 170.332,397.734 171.166,398.187 171.340 C 399.454 171.826,399.616 166.101,398.368 164.971 C 397.616 164.291,397.600 164.349,397.600 167.695 M0.000 176.000 C 0.000 178.667,0.158 180.400,0.400 180.400 C 0.642 180.400,0.800 178.667,0.800 176.000 C 0.800 173.333,0.642 171.600,0.400 171.600 C 0.158 171.600,0.000 173.333,0.000 176.000 M399.200 179.400 C 399.200 181.400,399.365 182.800,399.600 182.800 C 399.835 182.800,400.000 181.400,400.000 179.400 C 400.000 177.400,399.835 176.000,399.600 176.000 C 399.365 176.000,399.200 177.400,399.200 179.400 M272.548 191.700 C 273.647 195.801,272.638 255.887,271.431 258.200 C 271.087 258.860,270.803 259.580,270.800 259.800 C 270.797 260.020,270.031 261.375,269.097 262.811 C 258.436 279.212,234.224 275.261,228.580 256.200 C 227.811 253.605,227.239 210.023,227.939 207.380 C 228.213 206.345,228.494 206.158,230.226 205.862 C 231.311 205.676,234.090 205.076,236.400 204.530 C 238.710 203.983,241.762 203.272,243.183 202.948 C 244.604 202.625,245.954 202.224,246.183 202.056 C 246.412 201.889,248.220 201.248,250.200 200.632 C 253.457 199.618,256.421 198.552,258.600 197.612 C 262.360 195.990,265.847 194.187,268.200 192.648 C 271.353 190.586,272.200 190.401,272.548 191.700 M171.964 210.956 C 172.304 211.366,172.396 217.458,172.313 234.056 L 172.200 256.600 171.116 258.800 C 161.288 278.745,135.240 278.103,128.597 257.752 C 127.156 253.336,127.078 238.260,128.478 234.536 C 132.114 224.860,147.067 215.178,163.000 212.182 C 164.540 211.893,166.790 211.385,168.000 211.054 C 170.805 210.287,171.396 210.273,171.964 210.956 M399.200 221.800 C 399.200 224.333,399.359 226.000,399.600 226.000 C 399.841 226.000,400.000 224.333,400.000 221.800 C 400.000 219.267,399.841 217.600,399.600 217.600 C 399.359 217.600,399.200 219.267,399.200 221.800 M0.000 223.200 C 0.000 224.080,0.180 224.800,0.400 224.800 C 0.620 224.800,0.800 224.080,0.800 223.200 C 0.800 222.320,0.620 221.600,0.400 221.600 C 0.180 221.600,0.000 222.320,0.000 223.200 M398.100 229.487 C 397.775 229.604,397.600 230.515,397.600 232.095 C 397.600 234.463,397.619 234.507,398.367 233.830 C 399.641 232.677,399.416 229.015,398.100 229.487 M0.800 233.226 C 0.800 235.639,1.277 237.200,2.014 237.200 C 2.227 237.200,2.400 235.876,2.400 234.243 C 2.400 231.429,2.138 230.800,0.967 230.800 C 0.875 230.800,0.800 231.892,0.800 233.226 M396.006 241.100 C 396.010 242.733,396.125 243.226,396.400 242.800 C 396.745 242.267,396.789 242.267,396.800 242.800 C 396.831 244.296,397.588 242.101,397.594 240.500 C 397.599 239.065,397.475 238.800,396.800 238.800 C 396.092 238.800,396.001 239.065,396.006 241.100 M2.468 241.186 C 2.693 243.960,4.000 244.196,4.000 241.462 C 4.000 240.022,3.878 239.771,3.177 239.771 C 2.479 239.771,2.371 239.988,2.468 241.186 M395.324 245.915 C 395.062 246.081,394.865 246.807,394.886 247.527 C 394.931 249.142,395.664 248.607,395.860 246.817 C 396.006 245.480,396.007 245.481,395.324 245.915 M4.154 247.377 C 3.791 248.322,4.161 249.382,4.905 249.525 C 5.460 249.632,5.600 249.372,5.600 248.229 C 5.600 246.751,4.616 246.171,4.154 247.377 M5.760 253.443 C 5.760 253.969,5.994 254.400,6.280 254.400 C 6.566 254.400,6.800 254.059,6.800 253.643 C 6.800 253.226,6.566 252.796,6.280 252.686 C 5.943 252.557,5.760 252.823,5.760 253.443 M393.375 252.706 C 392.710 253.166,392.903 255.366,393.621 255.507 C 394.088 255.598,394.266 255.229,394.337 254.014 C 394.431 252.424,394.212 252.127,393.375 252.706 M392.100 258.287 C 391.412 258.534,391.459 260.400,392.153 260.400 C 392.458 260.400,392.794 259.946,392.900 259.390 C 393.108 258.303,392.890 258.004,392.100 258.287 M6.800 258.711 C 6.800 258.789,6.986 259.201,7.214 259.626 C 7.788 260.698,8.400 260.594,8.400 259.425 C 8.400 258.696,8.198 258.465,7.600 258.510 C 7.160 258.543,6.800 258.634,6.800 258.711 M390.000 263.789 C 390.000 264.817,390.157 265.106,390.672 265.031 C 391.689 264.881,391.771 262.583,390.763 262.507 C 390.153 262.461,390.000 262.718,390.000 263.789 M8.619 264.100 C 8.818 265.131,9.041 265.345,9.573 265.016 C 10.261 264.591,10.064 263.710,9.232 263.492 C 8.631 263.335,8.498 263.468,8.619 264.100 M388.400 268.229 C 388.400 269.375,388.539 269.632,389.100 269.525 C 390.025 269.349,390.301 267.600,389.404 267.600 C 389.046 267.600,388.864 267.420,389.000 267.200 C 389.136 266.980,389.057 266.800,388.824 266.800 C 388.591 266.800,388.400 267.443,388.400 268.229 M10.083 268.582 C 10.263 269.832,11.600 269.896,11.600 268.654 C 11.600 267.890,11.405 267.664,10.783 267.711 C 10.207 267.755,10.001 268.010,10.083 268.582 M387.500 271.919 C 386.584 272.102,386.503 274.400,387.413 274.400 C 388.121 274.400,388.521 273.582,388.332 272.519 C 388.250 272.060,387.935 271.833,387.500 271.919 M11.712 272.600 C 11.870 274.035,13.200 274.533,13.200 273.157 C 13.200 272.589,13.013 272.386,12.626 272.535 C 12.310 272.656,11.955 272.540,11.837 272.278 C 11.720 272.015,11.663 272.160,11.712 272.600 M385.200 276.414 C 385.200 277.504,385.282 277.584,386.000 277.200 C 386.440 276.965,386.800 276.418,386.800 275.986 C 386.800 275.467,386.529 275.200,386.000 275.200 C 385.376 275.200,385.200 275.467,385.200 276.414 M13.200 276.353 C 13.200 276.770,13.557 277.200,14.000 277.316 C 14.636 277.482,14.800 277.328,14.800 276.563 C 14.800 275.867,14.578 275.600,14.000 275.600 C 13.483 275.600,13.200 275.867,13.200 276.353 M383.843 279.433 C 383.331 280.765,383.570 282.064,384.300 281.926 C 385.217 281.752,385.564 278.800,384.667 278.800 C 384.347 278.800,383.976 279.085,383.843 279.433 M383.097 282.850 C 382.302 283.295,382.125 284.958,382.900 284.700 C 383.175 284.608,383.400 284.278,383.400 283.967 C 383.400 283.655,383.575 283.275,383.788 283.122 C 384.432 282.661,383.846 282.430,383.097 282.850 M16.552 283.781 C 16.429 284.100,16.446 284.550,16.588 284.781 C 17.054 285.535,17.600 285.221,17.600 284.200 C 17.600 283.116,16.913 282.841,16.552 283.781 M17.812 286.749 C 17.882 287.107,17.953 287.535,17.969 287.700 C 17.986 287.865,18.270 288.000,18.600 288.000 C 19.472 288.000,19.337 286.529,18.443 286.295 C 17.900 286.153,17.721 286.282,17.812 286.749 M380.769 286.471 C 380.753 286.762,380.678 287.315,380.605 287.700 C 380.531 288.085,380.622 288.400,380.807 288.400 C 381.374 288.400,382.445 287.134,382.285 286.654 C 382.066 285.997,380.806 285.845,380.769 286.471 M379.200 290.000 C 379.200 291.293,380.129 291.682,380.557 290.567 C 381.001 289.410,380.809 288.800,380.000 288.800 C 379.378 288.800,379.200 289.067,379.200 290.000 M19.400 290.000 C 19.065 290.542,19.517 291.200,20.224 291.200 C 20.541 291.200,20.800 290.840,20.800 290.400 C 20.800 289.572,19.835 289.296,19.400 290.000 M378.300 292.303 C 377.868 292.399,377.600 292.831,377.600 293.429 C 377.600 294.734,378.710 294.697,379.040 293.381 C 379.335 292.206,379.256 292.090,378.300 292.303 M21.055 293.400 C 21.182 293.730,21.536 294.000,21.843 294.000 C 22.149 294.000,22.400 293.730,22.400 293.400 C 22.400 293.070,22.046 292.800,21.613 292.800 C 21.077 292.800,20.899 292.992,21.055 293.400 M376.000 296.400 C 376.000 297.268,376.295 297.381,377.151 296.839 C 377.797 296.430,377.411 295.600,376.576 295.600 C 376.259 295.600,376.000 295.960,376.000 296.400 M375.217 298.390 C 374.475 298.848,374.326 300.000,375.008 300.000 C 375.304 300.000,375.665 299.626,375.810 299.170 C 376.130 298.159,375.957 297.932,375.217 298.390 M24.971 299.829 C 25.317 300.174,25.600 300.624,25.600 300.829 C 25.600 301.033,25.870 301.200,26.200 301.200 C 26.530 301.200,26.800 301.020,26.800 300.800 C 26.800 300.580,26.530 300.400,26.200 300.400 C 25.870 300.400,25.600 300.130,25.600 299.800 C 25.600 299.470,25.317 299.200,24.971 299.200 C 24.400 299.200,24.400 299.257,24.971 299.829 M372.806 300.700 C 372.825 301.640,373.553 302.137,374.165 301.629 C 374.509 301.343,374.693 300.950,374.572 300.755 C 374.306 300.325,372.798 300.278,372.806 300.700 M371.600 304.200 C 371.600 305.379,372.206 305.510,372.772 304.453 C 373.204 303.644,372.978 303.200,372.133 303.200 C 371.831 303.200,371.600 303.633,371.600 304.200 M27.043 304.169 C 27.407 305.115,28.400 305.275,28.400 304.387 C 28.400 303.871,28.129 303.600,27.613 303.600 C 27.096 303.600,26.900 303.796,27.043 304.169 M370.500 306.265 C 369.869 306.520,369.835 307.722,370.465 307.512 C 370.721 307.426,370.975 307.051,371.030 306.678 C 371.084 306.305,371.100 306.014,371.065 306.032 C 371.029 306.049,370.775 306.154,370.500 306.265 M28.997 306.804 C 28.769 307.173,30.829 309.600,31.369 309.600 C 31.496 309.600,31.600 309.240,31.600 308.800 C 31.600 308.267,31.333 308.000,30.800 308.000 C 30.267 308.000,30.000 307.733,30.000 307.200 C 30.000 306.354,29.418 306.124,28.997 306.804 M368.400 308.800 C 368.400 309.333,368.667 309.600,369.200 309.600 C 369.733 309.600,370.000 309.333,370.000 308.800 C 370.000 308.267,369.733 308.000,369.200 308.000 C 368.667 308.000,368.400 308.267,368.400 308.800 M31.994 311.204 C 31.524 311.494,31.569 311.680,32.250 312.277 C 32.704 312.675,33.158 313.254,33.259 313.565 C 33.549 314.455,34.800 314.454,34.800 313.565 C 34.800 313.067,34.521 312.800,34.000 312.800 C 33.475 312.800,33.200 312.533,33.200 312.024 C 33.200 311.059,32.737 310.744,31.994 311.204 M365.200 313.600 C 365.200 314.481,365.250 314.509,366.167 314.157 C 367.074 313.809,366.949 312.800,366.000 312.800 C 365.467 312.800,365.200 313.067,365.200 313.600 M36.400 317.813 C 36.400 318.149,36.670 318.529,37.000 318.655 C 37.330 318.782,37.600 319.136,37.600 319.443 C 37.600 319.749,37.780 320.000,38.000 320.000 C 38.220 320.000,38.400 319.831,38.400 319.624 C 38.400 319.417,38.220 319.136,38.000 319.000 C 37.780 318.864,37.600 318.403,37.600 317.976 C 37.600 317.549,37.330 317.200,37.000 317.200 C 36.670 317.200,36.400 317.476,36.400 317.813 M362.400 318.000 C 362.400 318.440,362.209 318.800,361.976 318.800 C 361.743 318.800,361.657 318.969,361.785 319.175 C 361.912 319.382,361.698 319.732,361.308 319.953 C 360.674 320.314,360.691 320.350,361.472 320.295 C 361.952 320.261,362.336 320.136,362.325 320.017 C 362.252 319.213,362.481 318.800,363.000 318.800 C 363.333 318.800,363.600 318.444,363.600 318.000 C 363.600 317.556,363.333 317.200,363.000 317.200 C 362.667 317.200,362.400 317.556,362.400 318.000 M359.700 321.888 C 359.425 321.986,359.200 322.360,359.200 322.719 C 359.200 323.313,359.261 323.311,359.876 322.695 C 360.599 321.972,360.517 321.596,359.700 321.888 M39.733 322.533 C 39.733 322.827,39.973 323.067,40.267 323.067 C 40.560 323.067,40.800 322.827,40.800 322.533 C 40.800 322.240,40.560 322.000,40.267 322.000 C 39.973 322.000,39.733 322.240,39.733 322.533 M40.800 323.951 C 40.800 324.476,41.834 325.233,42.137 324.930 C 42.684 324.382,42.369 323.600,41.600 323.600 C 41.160 323.600,40.800 323.758,40.800 323.951 M357.600 324.237 C 357.600 324.588,357.240 324.969,356.800 325.084 C 356.311 325.212,356.003 325.625,356.009 326.147 L 356.018 327.000 356.709 326.147 C 357.089 325.678,357.805 325.086,358.300 324.833 C 359.415 324.262,359.469 323.600,358.400 323.600 C 357.935 323.600,357.600 323.867,357.600 324.237 M42.958 325.487 C 43.494 325.624,43.572 325.770,43.225 325.985 C 42.859 326.211,42.895 326.351,43.366 326.532 C 43.812 326.703,44.000 326.542,44.000 325.987 C 44.000 325.424,43.744 325.213,43.100 325.246 C 42.337 325.286,42.316 325.322,42.958 325.487 M47.285 331.826 C 47.519 332.341,47.903 332.726,48.138 332.681 C 48.372 332.637,48.575 332.780,48.588 333.000 C 48.632 333.718,49.247 334.418,49.628 334.183 C 50.279 333.780,50.029 332.901,49.200 332.684 C 48.760 332.569,48.400 332.209,48.400 331.884 C 48.400 331.559,48.053 331.203,47.629 331.092 C 46.950 330.914,46.909 331.002,47.285 331.826 M350.000 333.373 C 350.000 333.688,349.640 334.060,349.200 334.200 C 348.760 334.340,348.400 334.731,348.400 335.070 C 348.400 335.467,348.625 335.599,349.033 335.443 C 349.381 335.309,349.751 335.200,349.856 335.200 C 349.961 335.200,349.928 335.008,349.783 334.773 C 349.638 334.538,349.897 334.247,350.360 334.126 C 351.317 333.876,351.512 332.800,350.600 332.800 C 350.270 332.800,350.000 333.058,350.000 333.373 M50.000 334.528 C 50.000 334.912,52.530 337.384,52.836 337.300 C 53.036 337.245,53.200 337.579,53.200 338.043 C 53.200 338.635,53.382 338.816,53.813 338.650 C 54.220 338.494,54.552 338.749,54.804 339.411 C 55.012 339.958,55.411 340.360,55.691 340.303 C 55.971 340.246,56.151 340.438,56.090 340.730 C 56.030 341.021,56.165 341.145,56.390 341.006 C 56.616 340.867,56.803 341.078,56.806 341.476 C 56.811 342.090,56.871 342.109,57.200 341.600 C 57.723 340.791,57.698 340.379,57.133 340.500 C 56.876 340.555,56.428 340.150,56.139 339.600 C 55.668 338.707,55.607 338.686,55.565 339.400 C 55.533 339.957,55.395 339.815,55.111 338.934 C 54.887 338.238,54.365 337.580,53.952 337.472 C 53.538 337.363,53.200 337.009,53.200 336.684 C 53.200 336.359,52.840 335.999,52.400 335.884 C 51.960 335.769,51.600 335.388,51.600 335.037 C 51.600 334.667,51.265 334.400,50.800 334.400 C 50.360 334.400,50.000 334.458,50.000 334.528 M347.300 335.887 C 346.487 336.179,346.730 337.156,347.600 337.090 C 348.040 337.057,348.400 336.809,348.400 336.538 C 348.400 335.921,347.949 335.654,347.300 335.887 M345.200 338.163 C 345.200 338.527,345.480 338.652,345.996 338.517 C 346.433 338.403,346.692 338.150,346.572 337.955 C 346.223 337.389,345.200 337.544,345.200 338.163 M342.668 340.967 C 342.548 341.279,342.749 341.648,343.113 341.788 C 343.477 341.928,343.648 341.914,343.491 341.758 C 343.335 341.602,343.407 341.232,343.652 340.937 C 343.992 340.528,343.954 340.400,343.492 340.400 C 343.158 340.400,342.788 340.655,342.668 340.967 M58.294 342.239 C 58.163 342.371,58.158 342.746,58.283 343.073 C 58.469 343.557,58.574 343.568,58.850 343.134 C 59.439 342.203,59.014 341.519,58.294 342.239 M340.800 342.485 C 340.800 342.658,341.160 342.800,341.600 342.800 C 342.040 342.800,342.400 342.631,342.400 342.425 C 342.400 342.219,342.040 342.077,341.600 342.110 C 341.160 342.143,340.800 342.312,340.800 342.485 M339.545 343.958 C 340.006 344.249,340.006 344.341,339.545 344.545 C 339.219 344.689,339.307 344.749,339.767 344.693 C 340.906 344.555,341.053 343.599,339.933 343.606 C 339.254 343.611,339.148 343.706,339.545 343.958 M60.800 345.575 C 60.800 345.781,61.160 345.923,61.600 345.890 C 62.040 345.857,62.400 345.688,62.400 345.515 C 62.400 345.342,62.040 345.200,61.600 345.200 C 61.160 345.200,60.800 345.369,60.800 345.575 M337.628 345.676 C 337.589 346.607,338.212 346.908,338.774 346.231 C 339.092 345.848,339.107 345.589,338.819 345.412 C 338.588 345.269,338.387 345.478,338.372 345.876 C 338.347 346.522,338.307 346.514,338.000 345.800 C 337.720 345.148,337.651 345.125,337.628 345.676 M62.334 346.707 C 62.628 346.917,62.853 347.204,62.834 347.345 C 62.738 348.063,62.849 348.142,63.194 347.600 C 63.494 347.128,63.631 347.275,63.835 348.284 C 63.977 348.991,64.208 349.554,64.347 349.537 C 65.082 349.445,65.600 349.648,65.600 350.027 C 65.600 350.530,69.138 354.000,69.650 354.000 C 69.843 354.000,70.000 353.730,70.000 353.400 C 70.000 353.070,69.650 352.800,69.223 352.800 C 68.661 352.800,68.489 352.578,68.600 352.000 C 68.711 351.422,68.539 351.200,67.977 351.200 C 67.467 351.200,67.200 350.925,67.200 350.400 C 67.200 349.867,66.933 349.600,66.400 349.600 C 65.867 349.600,65.600 349.333,65.600 348.800 C 65.600 348.267,65.333 348.000,64.800 348.000 C 64.356 348.000,64.000 347.733,64.000 347.400 C 64.000 347.070,63.835 346.800,63.633 346.800 C 63.431 346.800,62.936 346.693,62.533 346.562 C 61.993 346.387,61.941 346.426,62.334 346.707 M336.000 347.200 C 336.000 347.733,335.733 348.000,335.200 348.000 C 334.667 348.000,334.400 348.267,334.400 348.800 C 334.400 349.240,334.151 349.600,333.847 349.600 C 333.542 349.600,333.199 349.960,333.084 350.400 C 332.969 350.840,332.607 351.200,332.280 351.200 C 331.630 351.200,331.051 352.261,331.537 352.561 C 331.967 352.827,332.614 352.321,332.926 351.475 C 333.074 351.076,333.377 350.862,333.600 351.000 C 333.823 351.138,334.124 350.943,334.268 350.566 C 334.558 349.811,336.625 347.725,337.308 347.497 C 337.897 347.301,337.296 346.400,336.576 346.400 C 336.259 346.400,336.000 346.760,336.000 347.200 M326.800 354.751 C 326.800 355.561,327.981 356.114,328.245 355.428 C 328.384 355.064,328.387 354.653,328.249 354.516 C 328.112 354.379,328.000 354.477,328.000 354.733 C 328.000 354.990,327.809 355.200,327.576 355.200 C 327.343 355.200,327.264 355.020,327.400 354.800 C 327.536 354.580,327.457 354.400,327.224 354.400 C 326.991 354.400,326.800 354.558,326.800 354.751 M325.700 355.865 C 325.425 355.976,325.200 356.322,325.200 356.633 C 325.200 356.945,324.827 357.200,324.371 357.200 C 323.811 357.200,323.583 357.417,323.671 357.867 C 323.863 358.858,324.821 359.005,325.063 358.079 C 325.179 357.636,325.617 357.184,326.037 357.074 C 326.457 356.965,326.800 356.588,326.800 356.237 C 326.800 355.585,326.579 355.510,325.700 355.865 M74.800 358.000 C 74.800 358.533,75.067 358.800,75.600 358.800 C 76.143 358.800,76.400 359.067,76.400 359.629 C 76.400 360.202,76.615 360.417,77.095 360.325 C 78.138 360.124,78.254 358.800,77.229 358.800 C 76.667 358.800,76.400 358.543,76.400 358.000 C 76.400 357.467,76.133 357.200,75.600 357.200 C 75.067 357.200,74.800 357.467,74.800 358.000 M322.000 359.120 C 322.000 359.491,322.849 360.400,323.195 360.400 C 323.324 360.400,323.457 360.040,323.490 359.600 C 323.531 359.054,323.304 358.800,322.775 358.800 C 322.349 358.800,322.000 358.944,322.000 359.120 M79.200 361.243 C 79.200 361.835,79.382 362.016,79.813 361.850 C 80.222 361.693,80.554 361.953,80.812 362.632 C 81.027 363.196,81.389 363.531,81.626 363.384 C 81.861 363.238,82.148 363.481,82.264 363.923 C 82.552 365.023,83.873 365.329,84.128 364.354 C 84.281 363.770,84.108 363.600,83.363 363.600 C 82.667 363.600,82.400 363.378,82.400 362.800 C 82.400 362.267,82.133 362.000,81.600 362.000 C 81.067 362.000,80.800 361.733,80.800 361.200 C 80.800 360.667,80.533 360.400,80.000 360.400 C 79.453 360.400,79.200 360.667,79.200 361.243 M319.484 361.200 C 319.359 361.679,318.938 362.000,318.437 362.000 C 317.867 362.000,317.600 362.255,317.600 362.800 C 317.600 363.997,318.256 363.769,319.321 362.202 C 319.843 361.433,320.419 360.938,320.600 361.102 C 320.780 361.266,320.799 361.175,320.641 360.900 C 320.216 360.163,319.722 360.291,319.484 361.200 M316.000 364.200 C 316.000 364.612,316.262 364.808,316.700 364.724 C 317.543 364.561,317.490 363.852,316.621 363.671 C 316.259 363.595,316.000 363.816,316.000 364.200 M85.671 365.821 C 85.852 366.690,86.561 366.743,86.724 365.900 C 86.808 365.462,86.612 365.200,86.200 365.200 C 85.816 365.200,85.595 365.459,85.671 365.821 M313.200 365.733 C 313.200 366.027,313.440 366.267,313.733 366.267 C 314.027 366.267,314.267 366.027,314.267 365.733 C 314.267 365.440,314.027 365.200,313.733 365.200 C 313.440 365.200,313.200 365.440,313.200 365.733 M86.944 366.998 C 87.085 367.365,87.200 367.741,87.200 367.833 C 87.200 367.925,87.573 368.000,88.029 368.000 C 89.207 368.000,88.862 366.638,87.640 366.465 C 86.889 366.358,86.742 366.471,86.944 366.998 M311.338 367.017 C 311.208 367.357,311.188 367.721,311.293 367.827 C 311.650 368.183,312.800 367.519,312.800 366.957 C 312.800 366.200,311.633 366.248,311.338 367.017 M90.157 368.633 C 90.291 368.981,90.400 369.341,90.400 369.433 C 90.400 369.525,90.658 369.600,90.973 369.600 C 91.288 369.600,91.660 369.960,91.800 370.400 C 91.940 370.840,92.386 371.200,92.792 371.200 C 93.841 371.200,93.548 369.833,92.464 369.672 C 91.921 369.592,91.600 369.257,91.600 368.772 C 91.600 368.254,91.323 368.000,90.757 368.000 C 90.153 368.000,89.983 368.179,90.157 368.633 M308.400 368.800 C 308.400 369.387,308.133 369.600,307.400 369.600 C 306.667 369.600,306.400 369.813,306.400 370.400 C 306.400 370.945,306.667 371.200,307.237 371.200 C 307.738 371.200,308.159 370.879,308.284 370.400 C 308.399 369.960,308.742 369.600,309.047 369.600 C 309.351 369.600,309.600 369.240,309.600 368.800 C 309.600 368.356,309.333 368.000,309.000 368.000 C 308.667 368.000,308.400 368.356,308.400 368.800 M94.800 371.800 C 94.800 372.130,94.875 372.400,94.967 372.400 C 95.059 372.400,95.419 372.509,95.767 372.643 C 96.221 372.817,96.400 372.647,96.400 372.043 C 96.400 371.467,96.147 371.200,95.600 371.200 C 95.156 371.200,94.800 371.467,94.800 371.800 M303.600 372.000 C 303.600 372.881,303.650 372.909,304.567 372.557 C 305.474 372.209,305.349 371.200,304.400 371.200 C 303.867 371.200,303.600 371.467,303.600 372.000 M98.000 373.400 C 98.000 373.730,98.270 374.000,98.600 374.000 C 98.930 374.000,99.200 373.730,99.200 373.400 C 99.200 373.070,98.930 372.800,98.600 372.800 C 98.270 372.800,98.000 373.070,98.000 373.400 M300.800 373.408 C 300.800 373.775,300.440 374.169,300.000 374.284 C 299.560 374.399,299.200 374.764,299.200 375.096 C 299.200 375.603,299.301 375.614,299.843 375.165 C 300.196 374.871,300.851 374.444,301.298 374.216 C 302.247 373.730,302.309 373.056,301.421 372.871 C 301.056 372.795,300.800 373.016,300.800 373.408 M99.600 375.000 C 99.874 375.330,100.346 375.600,100.649 375.600 C 100.952 375.600,101.200 375.330,101.200 375.000 C 101.200 374.619,100.817 374.400,100.151 374.400 C 99.264 374.400,99.179 374.493,99.600 375.000 M296.500 375.893 C 295.733 376.159,295.907 377.143,296.700 377.026 C 297.085 376.970,297.368 376.801,297.330 376.652 C 297.136 375.898,296.957 375.735,296.500 375.893 M102.500 376.500 C 102.752 377.257,104.000 377.364,104.000 376.629 C 104.000 376.258,103.658 376.000,103.167 376.000 C 102.678 376.000,102.402 376.207,102.500 376.500 M105.600 378.000 C 105.600 378.533,105.867 378.800,106.400 378.800 C 106.933 378.800,107.200 378.533,107.200 378.000 C 107.200 377.467,106.933 377.200,106.400 377.200 C 105.867 377.200,105.600 377.467,105.600 378.000 M292.800 378.000 C 292.800 378.949,293.809 379.074,294.157 378.167 C 294.509 377.250,294.481 377.200,293.600 377.200 C 293.067 377.200,292.800 377.467,292.800 378.000 M108.572 379.500 C 108.627 379.885,109.047 380.256,109.505 380.324 C 110.171 380.423,110.295 380.283,110.122 379.624 C 109.856 378.605,108.426 378.491,108.572 379.500 M290.000 379.600 C 290.000 380.402,290.761 380.533,291.274 379.819 C 291.639 379.311,291.289 378.800,290.576 378.800 C 290.259 378.800,290.000 379.160,290.000 379.600 M111.600 380.786 C 111.600 380.998,111.960 381.365,112.400 381.600 C 113.078 381.963,113.200 381.904,113.200 381.214 C 113.200 380.667,112.938 380.400,112.400 380.400 C 111.960 380.400,111.600 380.574,111.600 380.786 M286.800 381.249 C 286.800 381.914,286.916 382.001,287.337 381.652 C 287.632 381.407,287.992 381.325,288.137 381.470 C 288.282 381.615,288.400 381.433,288.400 381.067 C 288.400 380.667,288.080 380.400,287.600 380.400 C 287.051 380.400,286.800 380.667,286.800 381.249 M114.800 382.573 C 114.800 383.125,116.272 383.861,116.640 383.494 C 116.738 383.395,116.705 383.019,116.567 382.657 C 116.257 381.850,114.800 381.781,114.800 382.573 M283.600 382.600 C 283.600 382.930,283.851 383.200,284.157 383.200 C 284.464 383.200,284.818 382.930,284.945 382.600 C 285.101 382.192,284.923 382.000,284.387 382.000 C 283.954 382.000,283.600 382.270,283.600 382.600 M118.000 384.013 C 118.000 384.385,119.644 385.244,119.909 385.011 C 119.970 384.958,119.905 384.619,119.767 384.257 C 119.493 383.544,118.000 383.338,118.000 384.013 M122.400 385.715 C 122.400 385.998,122.760 386.257,123.200 386.290 C 123.657 386.324,124.000 386.104,124.000 385.775 C 124.000 385.459,123.640 385.200,123.200 385.200 C 122.760 385.200,122.400 385.432,122.400 385.715 M276.000 385.800 C 276.000 386.473,276.073 386.500,276.967 386.157 C 277.861 385.814,277.754 385.200,276.800 385.200 C 276.356 385.200,276.000 385.467,276.000 385.800 M125.676 387.100 C 125.750 387.485,126.151 387.800,126.567 387.800 C 126.983 387.800,127.370 387.485,127.426 387.100 C 127.501 386.594,127.254 386.400,126.535 386.400 C 125.804 386.400,125.577 386.585,125.676 387.100 M272.906 387.153 C 272.976 388.072,274.147 387.998,274.329 387.062 C 274.415 386.623,274.188 386.400,273.654 386.400 C 273.113 386.400,272.868 386.646,272.906 387.153 M130.000 388.320 C 130.000 388.818,130.904 389.600,131.480 389.600 C 131.766 389.600,132.000 389.240,132.000 388.800 C 132.000 388.213,131.733 388.000,131.000 388.000 C 130.450 388.000,130.000 388.144,130.000 388.320 M268.130 388.263 C 268.275 388.408,268.180 388.783,267.919 389.097 C 267.524 389.573,267.641 389.646,268.619 389.534 C 270.222 389.351,270.525 388.000,268.963 388.000 C 268.360 388.000,267.985 388.118,268.130 388.263 M134.806 389.900 C 134.829 391.033,136.400 391.526,136.400 390.400 C 136.400 389.867,136.133 389.600,135.600 389.600 C 135.160 389.600,134.803 389.735,134.806 389.900 M263.800 390.000 C 263.664 390.220,263.844 390.400,264.200 390.400 C 264.587 390.400,264.733 390.585,264.562 390.862 C 264.389 391.141,264.452 391.215,264.721 391.049 C 265.200 390.753,264.930 389.600,264.381 389.600 C 264.197 389.600,263.936 389.780,263.800 390.000 M139.467 391.467 C 139.048 391.885,139.155 392.475,139.600 392.200 C 139.820 392.064,140.000 392.138,140.000 392.364 C 140.000 392.590,140.270 392.671,140.600 392.545 C 141.448 392.219,141.347 391.200,140.467 391.200 C 140.063 391.200,139.613 391.320,139.467 391.467 M259.080 391.453 C 258.571 391.963,258.788 392.291,259.605 392.245 C 260.048 392.220,260.417 392.020,260.426 391.800 C 260.446 391.314,259.471 391.063,259.080 391.453 M144.000 393.315 C 144.000 394.028,145.485 394.076,145.755 393.373 C 145.909 392.971,145.680 392.800,144.987 392.800 C 144.444 392.800,144.000 393.032,144.000 393.315 M254.400 393.414 C 254.400 393.904,254.561 393.942,255.200 393.600 C 255.640 393.365,256.000 393.088,256.000 392.986 C 256.000 392.884,255.640 392.800,255.200 392.800 C 254.747 392.800,254.400 393.067,254.400 393.414 M150.093 394.878 C 150.300 395.500,152.162 395.994,152.804 395.598 C 153.650 395.075,152.826 394.400,151.343 394.400 C 150.427 394.400,149.989 394.568,150.093 394.878 M246.660 394.987 C 246.344 395.812,246.875 396.024,248.234 395.617 C 248.875 395.426,249.130 395.235,248.800 395.195 C 248.470 395.154,248.650 394.976,249.200 394.800 C 250.058 394.525,249.964 394.474,248.543 394.440 C 247.427 394.413,246.812 394.592,246.660 394.987 M156.400 396.357 C 156.400 396.818,157.407 397.200,158.620 397.200 C 159.304 397.200,159.510 397.030,159.345 396.600 C 159.096 395.953,156.400 395.731,156.400 396.357 M240.400 396.515 C 240.400 396.798,240.760 397.057,241.200 397.090 C 241.640 397.123,242.000 396.998,242.000 396.813 C 242.000 396.627,242.388 396.576,242.863 396.700 C 243.454 396.855,243.635 396.780,243.439 396.463 C 243.040 395.817,240.400 395.862,240.400 396.515 M165.430 397.942 C 165.955 398.447,166.294 398.543,166.494 398.242 C 166.704 397.926,166.789 397.933,166.794 398.265 C 166.797 398.520,167.115 398.669,167.500 398.595 C 167.885 398.522,168.348 398.447,168.529 398.431 C 169.580 398.333,167.399 397.200,166.159 397.200 C 164.689 397.200,164.675 397.214,165.430 397.942 M231.600 397.557 C 231.600 398.531,234.086 398.856,234.226 397.900 C 234.307 397.350,234.037 397.200,232.965 397.200 C 232.214 397.200,231.600 397.361,231.600 397.557 M173.400 399.200 C 173.264 399.420,173.444 399.600,173.800 399.600 C 174.156 399.600,174.358 399.744,174.250 399.919 C 174.141 400.095,175.211 400.259,176.626 400.283 C 178.909 400.323,179.200 400.242,179.200 399.564 C 179.200 398.710,173.908 398.378,173.400 399.200 M222.000 399.614 C 222.000 400.279,222.201 400.394,223.100 400.247 C 223.705 400.147,224.425 400.051,224.700 400.033 C 226.109 399.940,225.092 398.800,223.600 398.800 C 222.258 398.800,222.000 398.931,222.000 399.614 " stroke="none" fill="#f6fbfb" fill-rule="evenodd"></path><path id="path1" d="M183.916 0.452 C 183.818 0.746,181.758 0.973,177.983 1.105 C 173.685 1.255,172.118 1.447,171.880 1.854 C 171.638 2.267,170.398 2.400,166.780 2.400 C 162.267 2.400,162.000 2.445,162.000 3.200 C 162.000 3.937,161.733 4.000,158.600 4.000 C 155.425 4.000,155.200 4.055,155.200 4.830 C 155.200 5.626,155.038 5.653,151.274 5.484 C 147.480 5.312,147.349 5.335,147.374 6.153 C 147.398 6.920,147.202 6.993,145.300 6.927 C 143.466 6.863,143.200 6.952,143.200 7.627 C 143.200 8.312,142.903 8.400,140.600 8.400 C 138.120 8.400,137.774 8.570,137.953 9.700 C 137.979 9.865,136.847 10.000,135.437 10.000 C 133.072 10.000,132.891 10.061,133.084 10.800 C 133.274 11.524,133.096 11.600,131.209 11.600 C 129.462 11.600,129.091 11.729,128.916 12.400 C 128.752 13.027,128.370 13.200,127.153 13.200 C 125.867 13.200,125.600 13.337,125.600 14.000 C 125.600 14.703,125.333 14.800,123.400 14.800 C 121.463 14.800,121.200 14.896,121.200 15.604 C 121.200 16.313,120.993 16.388,119.446 16.236 C 117.873 16.082,117.713 16.144,117.893 16.832 C 118.069 17.506,117.855 17.607,116.147 17.661 C 113.475 17.745,113.297 17.769,112.962 18.105 C 112.799 18.267,112.967 18.400,113.333 18.400 C 113.700 18.400,114.000 18.557,114.000 18.748 C 114.000 18.940,113.415 19.075,112.700 19.048 C 111.558 19.006,111.416 19.113,111.530 19.930 C 111.629 20.632,111.481 20.842,110.930 20.784 C 108.732 20.554,107.905 20.794,108.116 21.600 C 108.295 22.284,108.128 22.400,106.963 22.400 C 105.867 22.400,105.600 22.557,105.600 23.200 C 105.600 23.867,105.333 24.000,104.000 24.000 C 102.635 24.000,102.400 24.125,102.400 24.850 C 102.400 25.574,102.229 25.666,101.242 25.468 C 100.306 25.281,100.043 25.393,99.871 26.051 C 99.725 26.608,99.365 26.841,98.729 26.788 C 97.107 26.654,96.346 26.789,96.580 27.168 C 96.876 27.647,95.647 28.876,95.168 28.580 C 94.965 28.455,94.800 28.723,94.800 29.176 C 94.800 29.855,94.547 30.000,93.363 30.000 C 92.262 30.000,91.876 30.187,91.716 30.800 C 91.565 31.375,91.155 31.609,90.253 31.632 C 89.564 31.649,89.225 31.754,89.500 31.865 C 90.599 32.308,89.997 33.200,88.600 33.200 C 87.467 33.200,87.200 33.352,87.200 34.000 C 87.200 34.533,86.933 34.800,86.400 34.800 C 85.865 34.800,85.600 35.067,85.600 35.605 C 85.600 36.310,85.403 36.385,84.000 36.208 C 82.602 36.033,82.400 36.108,82.400 36.804 C 82.400 37.527,81.361 37.878,79.900 37.647 C 79.735 37.621,79.600 37.799,79.600 38.043 C 79.600 38.286,79.870 38.382,80.200 38.255 C 80.578 38.110,80.800 38.260,80.800 38.659 C 80.800 39.096,80.552 39.228,80.000 39.084 C 79.560 38.969,79.200 39.049,79.200 39.261 C 79.200 39.473,79.020 39.536,78.800 39.400 C 78.580 39.264,78.400 39.354,78.400 39.600 C 78.400 39.846,78.222 39.937,78.005 39.803 C 77.778 39.663,77.711 39.823,77.847 40.179 C 78.018 40.624,77.837 40.800,77.205 40.800 C 76.662 40.800,76.245 41.106,76.116 41.600 C 76.001 42.040,75.658 42.400,75.353 42.400 C 75.049 42.400,74.800 42.760,74.800 43.200 C 74.800 43.733,74.533 44.000,74.000 44.000 C 73.483 44.000,73.200 44.267,73.200 44.753 C 73.200 45.237,72.846 45.574,72.212 45.696 C 71.669 45.799,71.301 45.760,71.395 45.609 C 71.488 45.457,71.295 45.333,70.965 45.333 C 70.635 45.333,70.452 45.558,70.558 45.834 C 70.744 46.319,69.741 47.004,69.066 46.852 C 68.882 46.811,68.636 47.142,68.519 47.589 C 68.400 48.041,67.974 48.400,67.553 48.400 C 67.067 48.400,66.800 48.683,66.800 49.200 C 66.800 49.640,66.542 50.000,66.227 50.000 C 65.912 50.000,65.540 50.360,65.400 50.800 C 65.260 51.240,64.815 51.600,64.410 51.600 C 63.854 51.600,63.730 51.810,63.901 52.463 C 64.091 53.191,63.991 53.291,63.263 53.101 C 62.552 52.915,62.400 53.048,62.400 53.855 C 62.400 54.567,62.208 54.803,61.700 54.718 C 61.226 54.638,60.957 54.903,60.867 55.538 C 60.768 56.240,60.541 56.426,59.967 56.276 C 59.409 56.130,59.200 56.283,59.200 56.837 C 59.200 57.333,58.920 57.600,58.400 57.600 C 57.867 57.600,57.600 57.867,57.600 58.400 C 57.600 58.948,57.333 59.200,56.753 59.200 C 56.104 59.200,55.955 59.386,56.116 60.000 C 56.271 60.593,56.128 60.800,55.563 60.800 C 55.053 60.800,54.800 61.081,54.800 61.647 C 54.800 62.296,54.614 62.445,54.000 62.284 C 53.364 62.118,53.200 62.272,53.200 63.037 C 53.200 63.733,52.978 64.000,52.400 64.000 C 51.960 64.000,51.600 64.249,51.600 64.553 C 51.600 64.858,51.240 65.201,50.800 65.316 C 50.360 65.431,50.000 65.812,50.000 66.163 C 50.000 66.533,49.665 66.800,49.200 66.800 C 48.683 66.800,48.400 67.067,48.400 67.553 C 48.400 67.982,48.038 68.401,47.560 68.526 C 47.063 68.656,46.834 68.932,47.000 69.200 C 47.166 69.468,46.937 69.744,46.440 69.874 C 45.502 70.119,45.339 70.628,46.100 70.935 C 46.500 71.096,46.500 71.143,46.100 71.168 C 45.825 71.186,45.600 71.650,45.600 72.200 C 45.600 72.933,45.387 73.200,44.800 73.200 C 44.258 73.200,44.000 73.467,44.000 74.027 C 44.000 74.661,43.820 74.797,43.230 74.610 C 42.641 74.423,42.430 74.581,42.330 75.283 C 42.243 75.899,41.971 76.161,41.500 76.082 C 41.035 76.004,40.800 76.224,40.800 76.736 C 40.800 77.170,40.451 77.598,40.000 77.716 C 39.513 77.843,39.200 78.262,39.200 78.786 C 39.200 79.260,39.056 79.558,38.881 79.450 C 38.705 79.342,38.300 79.418,37.981 79.620 C 37.527 79.907,37.597 79.989,38.300 79.994 C 38.795 79.997,39.200 80.201,39.200 80.447 C 39.200 80.696,38.847 80.801,38.400 80.684 C 37.764 80.518,37.600 80.672,37.600 81.437 C 37.600 82.121,37.377 82.400,36.830 82.400 C 36.194 82.400,36.082 82.640,36.189 83.786 C 36.289 84.864,36.149 85.226,35.559 85.413 C 35.142 85.546,34.800 85.891,34.800 86.180 C 34.800 86.470,34.440 86.801,34.000 86.916 C 33.527 87.040,33.200 87.462,33.200 87.948 C 33.200 88.401,32.840 88.965,32.400 89.200 C 31.932 89.450,31.600 90.038,31.600 90.614 C 31.600 91.333,31.384 91.600,30.800 91.600 C 30.155 91.600,30.000 91.867,30.000 92.976 C 30.000 94.475,29.319 95.231,28.761 94.351 C 28.520 93.970,28.410 94.194,28.406 95.077 C 28.401 96.162,28.272 96.329,27.551 96.191 C 26.772 96.041,26.723 96.155,26.949 97.571 C 27.172 98.966,27.102 99.138,26.223 99.358 C 25.364 99.574,25.277 99.766,25.478 101.001 C 25.678 102.233,25.603 102.400,24.852 102.400 C 24.140 102.400,24.000 102.637,24.000 103.847 C 24.000 105.088,23.888 105.264,23.214 105.088 C 22.781 104.975,22.443 104.999,22.461 105.141 C 22.613 106.306,22.278 107.185,21.600 107.400 C 21.050 107.575,20.800 108.005,20.800 108.778 C 20.800 109.396,20.537 110.120,20.216 110.387 C 19.731 110.789,19.660 110.728,19.795 110.025 C 19.888 109.543,19.790 109.282,19.569 109.419 C 19.354 109.552,19.212 110.052,19.252 110.530 C 19.406 112.377,19.179 113.112,18.389 113.319 C 17.942 113.436,17.604 113.682,17.636 113.866 C 17.977 115.803,17.545 117.636,16.803 117.401 C 16.073 117.169,16.017 117.303,16.147 118.974 C 16.266 120.519,16.177 120.800,15.567 120.800 C 15.005 120.800,14.819 121.174,14.723 122.500 C 14.625 123.861,14.461 124.177,13.900 124.082 C 13.304 123.982,13.200 124.291,13.200 126.156 C 13.200 127.995,13.072 128.387,12.400 128.600 C 11.759 128.804,11.600 129.205,11.600 130.627 C 11.600 132.133,11.480 132.400,10.800 132.400 C 9.984 132.400,9.816 133.072,9.985 135.670 C 10.043 136.567,9.921 136.704,9.227 136.523 C 8.452 136.320,8.400 136.474,8.400 138.991 C 8.400 141.382,8.308 141.699,7.560 141.895 C 6.776 142.099,6.738 142.292,6.997 144.710 L 7.275 147.306 6.268 147.053 L 5.261 146.800 5.452 150.000 C 5.641 153.156,5.539 153.443,4.300 153.247 C 3.989 153.198,3.876 154.941,3.995 157.929 C 4.053 159.375,3.928 159.694,3.232 159.876 C 2.325 160.113,2.303 160.267,2.397 165.700 C 2.447 168.582,2.393 168.800,1.625 168.800 C 0.829 168.800,0.800 169.007,0.800 174.600 C 0.800 178.200,0.648 180.400,0.400 180.400 C 0.139 180.400,0.000 187.533,0.000 201.000 C 0.000 214.467,0.139 221.600,0.400 221.600 C 0.985 221.600,0.893 224.696,0.300 224.935 C -0.100 225.096,-0.100 225.143,0.300 225.168 C 0.649 225.190,0.800 226.038,0.800 227.973 C 0.800 230.379,0.904 230.779,1.587 230.996 C 2.294 231.220,2.385 231.675,2.487 235.523 C 2.589 239.376,2.672 239.794,3.328 239.740 C 3.943 239.689,4.045 239.966,3.992 241.540 C 3.826 246.438,3.938 247.141,4.847 246.904 C 5.669 246.689,5.685 246.764,5.406 249.541 C 5.198 251.609,5.247 252.400,5.583 252.400 C 5.838 252.400,5.937 252.578,5.803 252.795 C 5.663 253.022,5.823 253.089,6.179 252.953 C 6.690 252.757,6.808 253.095,6.843 254.857 C 6.914 258.465,6.948 258.609,7.700 258.482 C 8.320 258.378,8.759 261.367,8.461 263.659 C 8.443 263.801,8.758 263.831,9.162 263.726 C 9.794 263.561,9.902 263.794,9.934 265.382 C 9.978 267.544,10.208 268.048,11.013 267.740 C 11.552 267.533,11.846 269.669,11.700 272.743 C 11.682 273.139,11.794 273.166,12.117 272.843 C 12.793 272.167,13.200 272.312,13.200 273.227 C 13.200 273.886,13.017 274.007,12.300 273.825 L 11.400 273.596 12.300 274.059 C 12.795 274.314,13.200 274.765,13.200 275.061 C 13.200 275.358,13.560 275.600,14.000 275.600 C 14.664 275.600,14.800 275.867,14.800 277.171 C 14.800 278.330,14.983 278.789,15.500 278.924 C 16.167 279.098,16.167 279.109,15.500 279.154 C 14.649 279.210,14.553 280.400,15.400 280.400 C 15.941 280.400,16.178 281.311,16.105 283.114 C 16.092 283.438,16.363 283.539,16.842 283.387 C 17.538 283.166,17.908 284.558,17.661 286.459 C 17.643 286.601,17.981 286.625,18.414 286.512 C 19.110 286.330,19.200 286.514,19.200 288.116 C 19.200 289.728,19.287 289.902,20.000 289.716 C 20.704 289.532,20.800 289.704,20.800 291.153 C 20.800 292.533,20.930 292.800,21.600 292.800 C 22.044 292.800,22.400 293.067,22.400 293.400 C 22.400 294.125,21.349 294.203,21.065 293.500 C 20.913 293.124,20.855 293.133,20.832 293.537 C 20.814 293.833,21.160 294.169,21.600 294.284 C 22.043 294.400,22.400 294.830,22.400 295.247 C 22.400 295.733,22.683 296.000,23.200 296.000 C 23.867 296.000,24.000 296.267,24.000 297.600 C 24.000 298.933,24.133 299.200,24.800 299.200 C 25.244 299.200,25.600 299.467,25.600 299.800 C 25.600 300.130,25.870 300.400,26.200 300.400 C 27.031 300.400,26.955 301.101,26.100 301.324 C 25.433 301.498,25.433 301.509,26.100 301.554 C 26.568 301.585,26.800 301.932,26.800 302.600 C 26.800 303.333,27.013 303.600,27.600 303.600 C 28.367 303.600,28.661 304.580,28.422 306.335 C 28.372 306.702,28.608 306.788,29.174 306.608 C 29.827 306.401,30.000 306.520,30.000 307.173 C 30.000 307.733,30.258 308.000,30.800 308.000 C 31.468 308.000,31.600 308.267,31.600 309.618 C 31.600 310.936,31.729 311.213,32.300 311.118 C 32.767 311.039,33.042 311.299,33.128 311.900 C 33.210 312.478,33.532 312.800,34.028 312.800 C 34.662 312.800,34.800 313.086,34.800 314.400 C 34.800 315.556,34.967 316.000,35.400 316.000 C 35.730 316.000,36.000 316.343,36.000 316.763 C 36.000 317.328,36.207 317.471,36.800 317.316 C 37.395 317.160,37.600 317.304,37.600 317.873 C 37.600 318.295,37.823 318.863,38.097 319.137 C 38.492 319.532,38.472 319.710,37.997 320.011 C 37.520 320.312,37.580 320.389,38.300 320.394 C 38.931 320.398,39.200 320.639,39.200 321.200 C 39.200 321.733,39.467 322.000,40.000 322.000 C 40.533 322.000,40.800 322.267,40.800 322.800 C 40.800 323.348,41.067 323.600,41.647 323.600 C 42.296 323.600,42.445 323.786,42.284 324.400 C 42.118 325.036,42.272 325.200,43.037 325.200 C 43.842 325.200,44.000 325.398,44.000 326.413 C 44.000 327.107,44.250 327.721,44.585 327.850 C 44.906 327.973,45.279 328.417,45.412 328.837 C 45.545 329.257,45.912 329.600,46.227 329.600 C 46.542 329.600,46.800 329.887,46.800 330.237 C 46.800 330.588,47.167 330.971,47.617 331.088 C 48.171 331.233,48.396 331.575,48.317 332.151 C 48.222 332.841,48.379 332.975,49.156 332.865 C 49.953 332.753,50.075 332.869,49.893 333.565 C 49.717 334.241,49.859 334.400,50.637 334.400 C 51.252 334.400,51.600 334.631,51.600 335.037 C 51.600 335.388,51.975 335.773,52.432 335.893 C 52.963 336.031,53.202 336.351,53.091 336.774 C 52.975 337.216,53.181 337.458,53.704 337.498 C 54.756 337.577,54.906 337.776,54.957 339.155 C 54.981 339.801,55.073 340.257,55.163 340.168 C 55.443 339.891,56.402 340.873,56.189 341.218 C 56.078 341.398,56.170 341.658,56.393 341.796 C 57.038 342.194,56.865 340.952,56.200 340.400 C 55.870 340.126,55.603 339.609,55.606 339.251 C 55.610 338.822,55.791 338.941,56.139 339.600 C 56.428 340.150,56.846 340.565,57.066 340.522 C 57.286 340.479,57.467 340.980,57.467 341.636 C 57.467 342.291,57.692 343.046,57.967 343.313 C 58.363 343.699,58.439 343.642,58.333 343.041 C 58.260 342.624,58.444 342.198,58.742 342.094 C 59.135 341.957,59.210 342.138,59.015 342.753 C 58.867 343.219,58.918 343.600,59.129 343.600 C 59.339 343.600,59.486 343.915,59.456 344.300 C 59.413 344.833,59.759 345.030,60.900 345.124 C 61.725 345.192,62.400 345.417,62.400 345.624 C 62.400 345.831,62.265 345.979,62.100 345.953 C 61.935 345.927,61.545 345.927,61.233 345.953 C 60.492 346.015,61.077 346.588,61.936 346.641 C 63.750 346.752,64.000 346.844,64.000 347.400 C 64.000 347.733,64.356 348.000,64.800 348.000 C 65.333 348.000,65.600 348.267,65.600 348.800 C 65.600 349.333,65.867 349.600,66.400 349.600 C 66.933 349.600,67.200 349.867,67.200 350.400 C 67.200 350.925,67.467 351.200,67.977 351.200 C 68.539 351.200,68.711 351.422,68.600 352.000 C 68.489 352.578,68.661 352.800,69.223 352.800 C 69.733 352.800,70.000 353.075,70.000 353.600 C 70.000 354.133,70.267 354.400,70.800 354.400 C 71.265 354.400,71.600 354.667,71.600 355.037 C 71.600 355.388,71.960 355.769,72.400 355.884 C 72.840 355.999,73.200 356.342,73.200 356.647 C 73.200 357.026,73.704 357.200,74.800 357.200 C 76.133 357.200,76.400 357.333,76.400 358.000 C 76.400 358.548,76.667 358.800,77.247 358.800 C 77.896 358.800,78.045 358.986,77.884 359.600 C 77.701 360.299,77.872 360.400,79.237 360.400 C 80.533 360.400,80.800 360.537,80.800 361.200 C 80.800 361.733,81.067 362.000,81.600 362.000 C 82.133 362.000,82.400 362.267,82.400 362.800 C 82.400 363.378,82.667 363.600,83.363 363.600 C 84.128 363.600,84.282 363.764,84.116 364.400 C 83.903 365.214,84.375 365.401,86.156 365.211 C 86.720 365.151,86.860 365.326,86.710 365.899 C 86.545 366.533,86.680 366.636,87.479 366.483 C 88.217 366.342,88.501 366.501,88.671 367.149 C 88.842 367.805,89.203 368.000,90.247 368.000 C 91.317 368.000,91.600 368.161,91.600 368.772 C 91.600 369.268,91.922 369.590,92.500 369.672 C 92.995 369.742,93.400 370.070,93.400 370.400 C 93.400 370.805,93.889 371.040,94.900 371.124 C 96.075 371.221,96.400 371.416,96.400 372.024 C 96.400 372.451,96.649 372.800,96.953 372.800 C 97.258 372.800,97.601 373.160,97.716 373.600 C 97.883 374.240,98.262 374.400,99.609 374.400 C 101.096 374.400,101.269 374.494,101.084 375.200 C 100.901 375.899,101.072 376.000,102.437 376.000 C 103.560 376.000,104.000 376.169,104.000 376.600 C 104.000 377.033,104.444 377.200,105.600 377.200 C 106.933 377.200,107.200 377.333,107.200 378.000 C 107.200 378.642,107.467 378.800,108.553 378.800 C 109.570 378.800,109.959 378.999,110.116 379.600 C 110.276 380.213,110.662 380.400,111.763 380.400 C 112.933 380.400,113.200 380.548,113.200 381.200 C 113.200 381.864,113.467 382.000,114.773 382.000 C 115.995 382.000,116.403 382.179,116.600 382.800 C 116.860 383.620,117.160 383.739,118.665 383.620 C 119.225 383.576,119.623 383.843,119.792 384.376 C 120.010 385.061,120.386 385.200,122.027 385.200 C 123.514 385.200,124.000 385.348,124.000 385.800 C 124.000 386.243,124.464 386.400,125.777 386.400 C 127.339 386.400,127.535 386.497,127.400 387.200 C 127.260 387.928,127.461 388.000,129.623 388.000 C 131.733 388.000,132.000 388.090,132.000 388.800 C 132.000 389.503,132.267 389.600,134.200 389.600 C 136.133 389.600,136.400 389.697,136.400 390.400 C 136.400 391.201,137.538 391.439,140.300 391.216 C 141.271 391.137,141.577 392.165,140.700 392.556 C 140.425 392.679,140.560 392.763,141.000 392.744 C 144.364 392.593,145.966 392.823,145.736 393.423 C 145.604 393.766,145.241 393.948,144.928 393.828 C 144.612 393.707,144.467 393.786,144.603 394.005 C 144.737 394.222,146.626 394.400,148.800 394.400 C 152.645 394.400,154.024 394.832,152.751 395.639 C 152.412 395.853,153.531 395.990,155.657 395.994 C 158.357 395.999,159.165 396.131,159.345 396.600 C 159.528 397.079,160.393 397.200,163.616 397.200 C 166.883 397.200,167.786 397.330,168.329 397.878 C 168.957 398.512,168.956 398.539,168.313 398.295 C 167.935 398.152,167.538 398.177,167.430 398.351 C 167.193 398.734,167.281 398.740,173.900 398.785 C 178.912 398.819,179.200 398.864,179.200 399.617 C 179.200 400.402,179.497 400.413,200.600 400.393 C 221.605 400.374,222.000 400.359,222.000 399.587 C 222.000 398.858,227.206 398.418,232.400 398.707 C 232.841 398.732,232.796 398.591,232.229 398.175 C 231.086 397.335,231.424 397.248,236.113 397.173 C 239.569 397.118,240.400 396.991,240.400 396.522 C 240.400 396.103,240.821 395.958,241.900 396.008 C 244.679 396.137,246.800 396.002,246.753 395.700 C 246.565 394.515,246.905 394.400,250.600 394.400 C 254.133 394.400,254.400 394.344,254.400 393.600 C 254.400 392.800,255.996 392.528,259.145 392.790 C 259.745 392.840,259.990 392.708,259.817 392.428 C 259.667 392.185,259.354 392.105,259.120 392.249 C 258.877 392.400,258.775 392.275,258.881 391.956 C 258.983 391.650,259.501 391.374,260.033 391.343 C 260.565 391.311,261.934 391.234,263.077 391.172 C 264.219 391.110,265.142 390.956,265.129 390.830 C 265.034 389.918,265.350 389.600,266.351 389.600 C 267.504 389.600,268.624 388.758,268.130 388.263 C 267.896 388.029,272.388 387.789,273.400 387.981 C 273.620 388.023,273.575 387.828,273.300 387.549 C 272.455 386.690,272.733 386.400,274.400 386.400 C 275.556 386.400,276.000 386.233,276.000 385.800 C 276.000 385.363,276.489 385.186,277.800 385.150 C 280.450 385.076,280.600 385.043,280.600 384.533 C 280.600 383.791,280.991 383.584,282.490 383.527 C 283.643 383.484,283.858 383.344,283.699 382.737 C 283.535 382.109,283.750 382.000,285.153 382.000 C 286.533 382.000,286.800 381.870,286.800 381.200 C 286.800 380.533,287.067 380.400,288.400 380.400 C 289.750 380.400,290.000 380.271,290.000 379.575 C 290.000 379.029,290.237 378.774,290.700 378.821 C 292.277 378.981,292.800 378.777,292.800 378.000 C 292.800 377.333,293.067 377.200,294.400 377.200 C 295.501 377.200,296.000 377.026,296.000 376.643 C 296.000 376.336,296.270 375.982,296.600 375.855 C 296.930 375.729,297.200 375.774,297.200 375.957 C 297.200 376.140,297.650 376.203,298.200 376.098 C 298.817 375.980,299.200 375.636,299.200 375.200 C 299.200 374.811,299.560 374.399,300.000 374.284 C 300.440 374.169,300.800 373.777,300.800 373.412 C 300.800 373.021,301.086 372.779,301.500 372.821 C 303.077 372.981,303.600 372.777,303.600 372.000 C 303.600 371.352,303.867 371.200,305.000 371.200 C 306.133 371.200,306.400 371.048,306.400 370.400 C 306.400 369.813,306.667 369.600,307.400 369.600 C 308.133 369.600,308.400 369.387,308.400 368.800 C 308.400 367.702,309.503 367.786,309.718 368.900 L 309.891 369.800 309.946 368.900 C 309.975 368.405,310.249 368.000,310.553 368.000 C 310.858 368.000,311.204 367.629,311.322 367.176 C 311.508 366.465,311.738 366.390,312.993 366.625 C 314.260 366.863,314.478 366.788,314.671 366.049 C 314.793 365.582,315.142 365.200,315.447 365.200 C 315.751 365.200,316.000 364.819,316.000 364.353 C 316.000 363.704,316.186 363.555,316.800 363.716 C 317.436 363.882,317.600 363.728,317.600 362.963 C 317.600 362.252,317.820 362.000,318.437 362.000 C 318.941 362.000,319.359 361.678,319.486 361.194 C 319.602 360.750,319.900 360.411,320.148 360.441 C 321.765 360.634,322.933 360.373,322.480 359.920 C 321.741 359.181,321.905 358.800,322.963 358.800 C 323.728 358.800,323.882 358.636,323.716 358.000 C 323.555 357.386,323.704 357.200,324.353 357.200 C 324.819 357.200,325.200 356.949,325.200 356.643 C 325.200 355.944,326.178 355.547,327.100 355.871 C 327.671 356.072,327.708 356.019,327.300 355.579 C 326.689 354.920,326.655 354.400,327.224 354.400 C 327.457 354.400,327.536 354.580,327.400 354.800 C 327.264 355.020,327.343 355.200,327.576 355.200 C 327.809 355.200,328.000 355.020,328.000 354.800 C 328.000 354.580,328.450 354.400,329.000 354.400 C 329.733 354.400,330.000 354.187,330.000 353.600 C 330.000 353.059,330.267 352.800,330.824 352.800 C 331.277 352.800,331.558 352.656,331.450 352.481 C 331.122 351.950,331.821 351.164,332.677 351.099 C 333.243 351.057,333.427 350.825,333.295 350.319 C 333.171 349.846,333.328 349.600,333.753 349.600 C 334.133 349.600,334.400 349.270,334.400 348.800 C 334.400 348.267,334.667 348.000,335.200 348.000 C 335.735 348.000,336.000 347.733,336.000 347.196 C 336.000 346.512,336.207 346.418,337.395 346.565 C 338.163 346.661,338.911 346.545,339.057 346.307 C 339.215 346.051,339.136 345.992,338.862 346.162 C 338.600 346.324,338.400 346.214,338.400 345.909 C 338.400 345.613,338.787 345.341,339.260 345.305 C 339.732 345.270,340.298 345.062,340.517 344.843 C 340.781 344.579,340.593 344.516,339.958 344.657 C 339.270 344.810,339.154 344.761,339.545 344.483 C 340.006 344.157,340.006 344.063,339.545 343.880 C 339.245 343.761,339.664 343.649,340.476 343.632 C 341.996 343.599,343.099 342.800,341.624 342.800 C 340.400 342.800,340.626 342.189,341.889 342.084 C 342.487 342.035,343.208 341.726,343.490 341.399 C 343.794 341.045,343.807 340.965,343.521 341.201 C 342.815 341.786,342.392 341.687,342.655 341.000 C 342.784 340.666,343.378 340.400,343.998 340.400 C 344.632 340.400,345.103 340.185,345.093 339.900 C 345.022 338.005,345.222 337.512,345.981 337.711 C 346.411 337.823,347.086 337.664,347.481 337.357 C 348.144 336.842,348.145 336.817,347.500 337.042 C 347.023 337.208,346.800 337.081,346.800 336.643 C 346.800 336.026,347.231 335.832,348.294 335.969 C 348.595 336.007,348.689 335.777,348.535 335.376 C 348.394 335.006,348.528 334.565,348.842 334.366 C 349.591 333.891,350.105 333.907,349.803 334.395 C 349.657 334.632,349.840 334.683,350.259 334.522 C 350.690 334.357,350.775 334.192,350.480 334.093 C 349.807 333.869,349.879 332.800,350.567 332.800 C 350.878 332.800,351.224 333.025,351.335 333.300 C 351.446 333.575,351.551 333.215,351.568 332.500 C 351.593 331.477,351.771 331.200,352.400 331.200 C 352.933 331.200,353.200 330.933,353.200 330.400 C 353.200 329.867,353.467 329.600,354.000 329.600 C 354.622 329.600,354.800 329.333,354.800 328.400 C 354.800 327.192,355.361 326.772,355.735 327.700 C 355.846 327.975,355.951 327.525,355.968 326.700 C 355.991 325.632,356.177 325.200,356.614 325.200 C 357.115 325.200,357.145 325.355,356.775 326.046 C 356.414 326.721,356.431 326.856,356.861 326.711 C 357.158 326.611,357.426 326.186,357.457 325.765 C 357.489 325.344,357.534 324.685,357.557 324.300 C 357.583 323.881,357.921 323.600,358.400 323.600 C 358.933 323.600,359.200 323.333,359.200 322.800 C 359.200 322.084,359.616 321.813,360.500 321.953 C 360.665 321.979,360.800 321.531,360.800 320.957 C 360.800 320.227,360.968 319.979,361.361 320.130 C 362.145 320.431,362.480 319.978,361.948 319.337 C 361.620 318.942,361.621 318.800,361.951 318.800 C 362.198 318.800,362.400 318.419,362.400 317.953 C 362.400 317.304,362.586 317.155,363.200 317.316 C 363.834 317.482,364.000 317.328,364.000 316.575 C 364.000 315.895,364.170 315.691,364.600 315.855 C 365.073 316.037,365.200 315.739,365.200 314.443 C 365.200 313.067,365.330 312.800,366.000 312.800 C 366.500 312.800,366.800 312.533,366.800 312.088 C 366.800 311.697,367.160 311.117,367.600 310.800 C 368.070 310.461,368.400 309.765,368.400 309.112 C 368.400 308.267,368.592 308.000,369.200 308.000 C 369.739 308.000,370.000 307.733,370.000 307.182 C 370.000 306.626,370.223 306.402,370.700 306.482 C 371.263 306.577,371.425 306.259,371.525 304.860 C 371.635 303.325,371.747 303.145,372.474 303.335 C 373.230 303.533,373.281 303.416,373.082 301.935 C 372.876 300.398,372.912 300.328,373.832 300.504 C 374.869 300.702,376.395 299.862,375.899 299.366 C 375.735 299.201,375.600 299.277,375.600 299.533 C 375.600 299.790,375.346 300.000,375.035 300.000 C 374.278 300.000,374.490 298.805,375.330 298.335 C 375.730 298.112,376.000 297.465,376.000 296.733 C 376.000 295.704,376.128 295.540,376.800 295.716 C 377.508 295.901,377.600 295.728,377.600 294.209 C 377.600 292.830,377.757 292.452,378.400 292.284 C 379.036 292.118,379.200 291.738,379.200 290.437 C 379.200 289.105,379.339 288.800,379.948 288.800 C 380.395 288.800,380.695 288.518,380.693 288.100 C 380.686 286.160,380.801 285.907,381.600 286.116 C 382.422 286.331,382.566 285.981,382.419 284.127 C 382.379 283.617,382.678 283.080,383.139 282.833 C 383.663 282.552,383.858 282.143,383.719 281.612 C 383.411 280.434,383.927 278.800,384.608 278.800 C 385.043 278.800,385.200 278.323,385.200 277.000 C 385.200 275.467,385.319 275.200,386.000 275.200 C 386.663 275.200,386.800 274.933,386.800 273.647 C 386.800 272.430,386.973 272.048,387.600 271.884 C 388.290 271.704,388.400 271.338,388.400 269.237 C 388.400 267.789,388.572 266.800,388.824 266.800 C 389.057 266.800,389.136 266.980,389.000 267.200 C 388.864 267.420,389.033 267.600,389.376 267.600 C 389.878 267.600,390.000 267.087,390.000 264.982 C 390.000 262.711,390.093 262.380,390.700 262.482 C 391.281 262.580,391.421 262.242,391.521 260.500 C 391.630 258.598,391.865 258.215,392.850 258.336 C 392.988 258.353,393.100 257.904,393.100 257.338 C 393.100 256.772,393.318 256.175,393.584 256.010 C 393.934 255.793,393.885 255.641,393.405 255.457 C 392.331 255.045,392.904 252.432,394.073 252.406 C 394.224 252.403,394.415 252.895,394.498 253.500 C 394.640 254.532,394.905 249.449,394.829 247.144 C 394.809 246.546,395.056 245.987,395.397 245.857 C 395.729 245.729,396.000 245.180,396.000 244.636 C 396.000 244.092,396.180 243.536,396.400 243.400 C 396.620 243.264,396.797 242.938,396.794 242.676 C 396.790 242.390,396.633 242.439,396.400 242.800 C 396.125 243.226,396.010 242.733,396.006 241.100 C 396.001 239.065,396.092 238.800,396.800 238.800 C 397.554 238.800,397.600 238.533,397.600 234.200 C 397.600 229.693,397.693 229.362,398.900 229.553 C 399.065 229.579,399.200 226.900,399.200 223.600 C 399.200 219.867,399.351 217.600,399.600 217.600 C 400.137 217.600,400.152 182.919,399.614 182.733 C 399.395 182.657,399.206 180.153,399.177 176.913 C 399.148 173.785,399.006 171.241,398.862 171.260 C 397.690 171.415,397.600 171.081,397.600 166.563 C 397.600 162.262,397.542 161.910,396.800 161.716 C 396.084 161.529,396.000 161.170,396.000 158.311 C 396.000 155.634,395.902 155.152,395.400 155.345 C 394.689 155.617,394.689 155.615,394.726 149.800 C 394.746 146.677,394.645 145.671,394.378 146.333 C 393.749 147.891,393.000 147.125,393.000 144.924 C 393.000 143.392,392.859 142.930,392.400 142.960 C 391.932 142.991,391.774 142.401,391.681 140.287 C 391.581 137.990,391.458 137.591,390.881 137.687 C 390.325 137.779,390.178 137.422,390.081 135.742 C 389.985 134.094,389.805 133.642,389.181 133.479 C 388.522 133.307,388.400 132.920,388.400 131.010 C 388.400 128.928,388.336 128.767,387.600 129.000 C 386.880 129.229,386.800 129.072,386.800 127.427 C 386.800 125.883,386.679 125.600,386.021 125.600 C 385.363 125.600,385.223 125.273,385.121 123.500 C 385.032 121.956,384.841 121.399,384.400 121.397 C 383.950 121.394,383.807 120.934,383.829 119.553 C 383.854 117.961,383.759 117.738,383.129 117.903 C 382.512 118.064,382.400 117.844,382.400 116.474 C 382.400 115.126,382.257 114.834,381.543 114.728 C 380.922 114.635,380.650 114.270,380.560 113.407 C 380.491 112.751,380.157 112.012,379.817 111.763 C 379.457 111.499,379.200 110.707,379.200 109.856 C 379.200 109.055,379.065 108.421,378.900 108.447 C 377.762 108.627,377.523 108.323,377.662 106.874 C 377.795 105.474,377.732 105.362,376.904 105.521 C 376.087 105.677,376.000 105.539,376.000 104.091 C 376.000 102.811,375.859 102.500,375.300 102.544 C 374.721 102.590,374.610 102.288,374.657 100.800 C 374.689 99.810,374.629 99.225,374.524 99.500 C 374.419 99.775,374.098 100.000,373.809 100.000 C 373.114 100.000,372.686 98.819,373.170 98.236 C 373.417 97.938,373.406 97.564,373.139 97.187 C 372.798 96.704,372.764 96.724,372.950 97.300 C 373.324 98.464,371.647 98.177,371.200 97.000 C 370.991 96.450,370.635 96.000,370.410 96.000 C 370.180 96.000,370.000 95.035,370.000 93.800 C 370.000 91.736,369.940 91.600,369.026 91.600 C 368.194 91.600,368.075 91.441,368.208 90.500 C 368.293 89.895,368.266 89.625,368.148 89.900 C 367.719 90.898,366.695 90.461,366.904 89.369 C 367.057 88.566,366.890 88.242,366.150 87.905 C 365.544 87.628,365.200 87.133,365.200 86.536 C 365.200 85.849,364.974 85.600,364.353 85.600 C 363.664 85.600,363.543 85.413,363.700 84.590 C 363.861 83.748,363.769 83.619,363.146 83.817 C 362.491 84.025,362.396 83.819,362.368 82.127 C 362.351 81.067,362.249 80.415,362.143 80.678 C 361.884 81.312,360.800 80.873,360.800 80.134 C 360.800 79.814,360.968 79.656,361.172 79.783 C 361.377 79.909,361.675 79.802,361.834 79.545 C 362.008 79.263,361.951 79.183,361.689 79.345 C 361.451 79.492,361.137 79.421,360.992 79.187 C 360.809 78.892,360.575 78.888,360.228 79.177 C 359.569 79.723,359.200 79.311,359.200 78.030 C 359.200 77.426,358.866 76.784,358.400 76.493 C 357.960 76.218,357.600 75.704,357.600 75.350 C 357.600 74.904,357.355 74.771,356.800 74.916 C 356.164 75.082,356.000 74.928,356.000 74.163 C 356.000 73.450,355.781 73.200,355.157 73.200 C 354.470 73.200,354.357 73.024,354.550 72.257 C 354.757 71.431,354.667 71.336,353.824 71.497 C 352.998 71.655,352.877 71.542,352.970 70.694 C 353.059 69.881,352.937 69.744,352.276 69.917 C 351.614 70.090,351.513 69.975,351.699 69.263 C 351.824 68.788,351.782 68.400,351.607 68.400 C 351.432 68.400,351.314 68.097,351.344 67.728 C 351.378 67.327,350.995 66.939,350.400 66.768 C 349.850 66.609,349.542 66.462,349.716 66.440 C 349.889 66.418,349.799 66.149,349.516 65.842 C 349.232 65.535,348.865 65.366,348.700 65.466 C 348.535 65.565,348.400 65.277,348.400 64.824 C 348.400 64.267,348.141 64.000,347.600 64.000 C 346.884 64.000,346.613 63.584,346.753 62.700 C 346.779 62.535,346.440 62.400,346.000 62.400 C 345.467 62.400,345.200 62.133,345.200 61.600 C 345.200 61.067,344.933 60.800,344.400 60.800 C 343.956 60.800,343.600 60.533,343.600 60.200 C 343.600 59.469,344.067 59.428,344.744 60.100 C 345.148 60.501,345.192 60.455,344.969 59.868 C 344.790 59.398,344.421 59.206,343.940 59.332 C 343.436 59.463,342.688 59.015,341.658 57.964 C 340.815 57.104,339.917 56.400,339.662 56.400 C 339.408 56.400,339.200 55.967,339.200 55.437 C 339.200 54.659,339.041 54.517,338.365 54.693 C 337.669 54.875,337.553 54.753,337.665 53.956 C 337.777 53.164,337.646 53.021,336.900 53.125 C 336.291 53.210,336.000 53.044,336.000 52.612 C 336.000 52.261,335.651 51.845,335.224 51.687 C 334.478 51.411,334.400 51.289,334.400 50.400 C 334.400 50.180,334.179 50.045,333.909 50.100 C 333.640 50.155,333.357 49.795,333.282 49.300 C 333.166 48.543,332.895 48.400,331.572 48.400 C 330.441 48.400,330.000 48.232,330.000 47.800 C 330.000 47.456,329.639 47.200,329.153 47.200 C 328.483 47.200,328.344 47.007,328.485 46.269 C 328.634 45.489,328.520 45.364,327.788 45.504 C 326.922 45.670,326.162 44.709,326.599 44.001 C 326.710 43.822,326.441 43.769,326.001 43.884 C 325.386 44.045,325.200 43.897,325.200 43.247 C 325.200 42.781,325.065 42.421,324.900 42.447 C 323.439 42.678,322.438 41.542,323.700 41.086 C 323.975 40.987,323.537 40.900,322.727 40.893 C 320.796 40.876,320.207 40.515,320.848 39.742 C 321.116 39.419,321.170 39.186,320.968 39.225 C 319.718 39.463,318.444 39.150,318.635 38.653 C 318.760 38.328,318.511 38.018,318.023 37.890 C 317.537 37.763,317.200 37.346,317.200 36.872 C 317.200 36.197,317.000 36.101,315.944 36.268 C 314.620 36.476,313.758 35.773,314.395 35.005 C 314.634 34.718,314.213 34.632,313.073 34.733 C 311.707 34.855,311.492 34.786,311.900 34.361 C 312.455 33.783,312.564 33.174,312.100 33.247 C 310.759 33.459,309.669 33.106,309.484 32.400 C 309.359 31.921,308.938 31.600,308.437 31.600 C 307.493 31.600,307.367 31.193,308.087 30.473 C 308.470 30.090,308.206 30.032,306.852 30.202 C 305.392 30.385,305.100 30.302,304.931 29.657 C 304.821 29.235,304.168 28.730,303.466 28.524 C 302.637 28.281,302.238 27.931,302.310 27.511 C 302.389 27.045,302.197 26.928,301.607 27.082 C 301.161 27.199,300.527 27.071,300.198 26.798 C 299.551 26.262,299.361 25.405,299.972 25.783 C 300.177 25.909,300.476 25.785,300.636 25.507 C 300.797 25.228,300.786 25.129,300.612 25.286 C 300.437 25.443,299.937 25.380,299.499 25.146 C 298.925 24.839,298.779 24.843,298.975 25.160 C 299.139 25.426,298.921 25.600,298.424 25.600 C 297.867 25.600,297.600 25.341,297.600 24.800 C 297.600 24.122,297.333 24.000,295.847 24.000 C 294.402 24.000,294.055 23.852,293.874 23.160 C 293.753 22.698,293.507 22.406,293.327 22.513 C 292.753 22.852,291.200 22.049,291.200 21.413 C 291.200 20.979,290.791 20.800,289.800 20.800 C 288.444 20.800,288.258 20.596,288.341 19.200 C 288.361 18.870,288.284 18.804,288.170 19.054 C 288.046 19.328,287.379 19.430,286.482 19.312 C 284.670 19.073,284.555 18.977,285.180 18.224 C 285.606 17.710,285.462 17.648,284.137 17.772 C 282.009 17.972,280.804 17.654,281.069 16.963 C 281.233 16.537,280.898 16.400,279.689 16.400 C 278.430 16.400,278.049 16.231,277.884 15.600 C 277.718 14.964,277.338 14.800,276.037 14.800 C 274.667 14.800,274.400 14.670,274.400 14.000 C 274.400 13.319,274.133 13.200,272.600 13.200 C 271.045 13.200,270.800 13.087,270.800 12.370 C 270.800 11.638,270.577 11.548,268.900 11.606 C 266.170 11.700,266.115 11.684,265.874 10.762 C 265.691 10.061,265.457 9.968,264.437 10.192 C 262.679 10.578,261.508 10.121,261.810 9.168 C 261.959 8.700,261.865 8.400,261.571 8.400 C 261.305 8.400,260.843 8.085,260.543 7.700 C 260.096 7.126,260.038 7.116,260.221 7.646 C 260.386 8.123,260.116 8.357,259.183 8.543 C 257.495 8.881,256.000 8.464,256.001 7.657 C 256.001 7.107,255.617 7.022,253.633 7.134 C 251.413 7.259,251.256 7.209,251.132 6.338 C 251.005 5.444,250.884 5.414,247.900 5.540 C 244.981 5.663,244.800 5.622,244.800 4.835 C 244.800 4.053,244.581 4.000,241.382 4.000 C 238.350 4.000,237.978 3.921,238.082 3.300 C 238.188 2.669,237.650 2.580,232.600 2.400 C 228.259 2.245,227.024 2.082,227.109 1.673 C 227.172 1.369,226.918 1.188,226.509 1.245 C 225.030 1.450,216.800 0.697,216.800 0.356 C 216.800 -0.200,184.102 -0.106,183.916 0.452 M340.245 55.812 C 340.610 56.369,340.986 56.747,341.082 56.651 C 341.319 56.414,340.284 54.800,339.895 54.800 C 339.722 54.800,339.880 55.256,340.245 55.812 M255.723 112.013 C 258.812 112.456,262.145 113.334,264.400 114.298 C 269.074 116.297,270.318 117.047,275.907 121.227 C 277.560 122.464,282.815 129.061,283.607 130.895 C 283.822 131.393,284.167 132.070,284.374 132.400 C 285.915 134.862,287.384 139.298,288.182 143.897 C 289.233 149.955,289.074 249.827,288.004 255.705 C 286.058 266.400,281.212 274.491,273.068 280.646 C 270.563 282.538,263.803 286.000,262.612 286.000 C 262.254 286.000,261.474 286.249,260.880 286.553 C 260.286 286.857,258.990 287.223,258.000 287.367 C 257.010 287.511,255.120 287.825,253.800 288.065 C 251.024 288.569,242.746 287.689,240.180 286.617 C 239.367 286.278,238.409 285.998,238.051 285.997 C 237.160 285.992,230.900 282.947,229.572 281.872 C 228.979 281.392,227.906 280.550,227.187 280.000 C 219.622 274.213,215.013 266.723,212.787 256.600 C 212.593 255.720,212.425 244.830,212.412 232.400 C 212.387 207.743,212.410 208.102,210.859 207.923 C 207.210 207.500,190.061 208.268,189.101 208.897 L 188.082 209.564 187.899 233.482 L 187.715 257.400 186.507 260.600 C 184.542 265.803,184.412 266.119,183.486 268.000 C 181.644 271.741,173.899 280.523,171.887 281.152 C 171.619 281.236,171.130 281.531,170.800 281.809 C 164.560 287.056,146.188 289.825,139.744 286.490 C 139.335 286.278,138.280 285.976,137.400 285.817 C 136.520 285.658,135.576 285.344,135.303 285.118 C 135.029 284.892,133.707 284.187,132.364 283.552 C 128.288 281.624,120.000 274.576,120.000 273.038 C 120.000 272.764,119.543 272.110,118.984 271.585 C 117.044 269.763,114.131 263.062,112.731 257.200 C 112.436 255.966,112.285 237.910,112.250 199.800 L 112.200 144.200 113.347 140.200 C 114.367 136.645,115.319 134.389,116.894 131.800 C 118.165 129.709,119.420 127.781,119.626 127.600 C 119.752 127.490,120.613 126.432,121.539 125.249 C 123.239 123.078,125.333 121.257,129.000 118.757 C 148.914 105.181,175.848 113.681,185.539 136.600 C 187.794 141.932,187.714 140.894,187.897 167.323 L 188.068 192.046 188.934 192.366 C 190.291 192.868,211.164 192.196,211.728 191.632 C 212.076 191.285,212.253 184.714,212.401 166.680 L 212.603 142.200 214.124 138.052 C 220.774 119.918,237.565 109.407,255.723 112.013 M142.518 128.789 C 135.494 131.493,130.765 136.426,128.586 143.321 L 127.600 146.441 127.600 178.197 C 127.600 197.217,127.748 210.044,127.970 210.181 C 128.313 210.393,132.631 208.113,134.000 206.997 C 134.931 206.239,140.732 203.426,143.400 202.439 C 144.720 201.951,146.340 201.292,147.000 200.974 C 147.660 200.656,149.100 200.146,150.200 199.840 C 151.300 199.535,153.460 198.890,155.000 198.406 C 158.284 197.375,163.233 196.223,168.000 195.381 C 172.828 194.528,172.400 196.998,172.400 169.996 C 172.400 144.456,172.466 145.290,170.039 139.961 C 168.151 135.815,161.070 129.200,158.520 129.200 C 158.282 129.200,157.303 128.844,156.344 128.409 C 153.507 127.122,146.338 127.319,142.518 128.789 M245.800 127.879 C 243.999 128.298,240.144 129.788,239.346 130.373 C 238.877 130.718,238.067 131.269,237.546 131.598 C 235.590 132.833,232.022 136.947,230.670 139.526 C 227.991 144.637,227.981 144.744,228.096 168.271 L 228.200 189.400 230.600 189.332 C 234.025 189.234,242.495 187.023,246.644 185.144 C 247.548 184.735,248.574 184.400,248.924 184.400 C 249.273 184.400,251.456 183.506,253.774 182.412 C 265.556 176.855,271.460 170.244,272.468 161.478 C 273.479 152.692,272.278 143.050,269.612 138.530 C 265.051 130.801,254.167 125.932,245.800 127.879 M268.200 192.648 C 265.847 194.187,262.360 195.990,258.600 197.612 C 256.421 198.552,253.457 199.618,250.200 200.632 C 248.220 201.248,246.412 201.889,246.183 202.056 C 245.954 202.224,244.604 202.625,243.183 202.948 C 241.762 203.272,238.710 203.983,236.400 204.530 C 234.090 205.076,231.311 205.676,230.226 205.862 C 228.494 206.158,228.213 206.345,227.939 207.380 C 227.239 210.023,227.811 253.605,228.580 256.200 C 234.224 275.261,258.436 279.212,269.097 262.811 C 270.031 261.375,270.797 260.020,270.800 259.800 C 270.803 259.580,271.087 258.860,271.431 258.200 C 272.638 255.887,273.647 195.801,272.548 191.700 C 272.200 190.401,271.353 190.586,268.200 192.648 M168.000 211.054 C 166.790 211.385,164.540 211.893,163.000 212.182 C 149.847 214.655,134.974 223.099,130.227 230.788 C 126.215 237.287,126.400 255.763,130.542 262.303 C 140.863 278.599,162.271 276.751,171.116 258.800 L 172.200 256.600 172.313 234.056 C 172.444 207.772,172.813 209.738,168.000 211.054 M42.492 326.075 C 42.579 326.336,42.909 326.620,43.225 326.705 C 43.700 326.834,43.705 326.795,43.255 326.479 C 42.794 326.156,42.794 326.063,43.255 325.880 C 43.622 325.734,43.560 325.653,43.067 325.632 C 42.663 325.614,42.405 325.814,42.492 326.075 M319.854 361.402 C 319.715 361.765,319.856 362.000,320.213 362.000 C 320.860 362.000,321.007 361.375,320.442 361.026 C 320.245 360.904,319.981 361.074,319.854 361.402 M314.267 365.733 C 314.267 366.027,314.027 366.267,313.733 366.267 C 313.440 366.267,313.200 366.027,313.200 365.733 C 313.200 365.440,313.440 365.200,313.733 365.200 C 314.027 365.200,314.267 365.440,314.267 365.733 M99.200 373.400 C 99.200 373.730,98.930 374.000,98.600 374.000 C 98.270 374.000,98.000 373.730,98.000 373.400 C 98.000 373.070,98.270 372.800,98.600 372.800 C 98.930 372.800,99.200 373.070,99.200 373.400 " stroke="none" fill="#40dee0" fill-rule="evenodd"></path></g></svg>